<?xml version="1.0" encoding="UTF-8" standalone="no"?>
<svg
   width="959"
   height="593"
   version="1.1"
   id="svg166"
   sodipodi:docname="senate.svg"
   inkscape:version="1.3.2 (091e20e, 2023-11-25, custom)"
   xmlns:inkscape="http://www.inkscape.org/namespaces/inkscape"
   xmlns:sodipodi="http://sodipodi.sourceforge.net/DTD/sodipodi-0.dtd"
   xmlns="http://www.w3.org/2000/svg"
   xmlns:svg="http://www.w3.org/2000/svg">
  <sodipodi:namedview
     id="namedview166"
     pagecolor="#ffffff"
     bordercolor="#000000"
     borderopacity="0.25"
     inkscape:showpageshadow="2"
     inkscape:pageopacity="0.0"
     inkscape:pagecheckerboard="0"
     inkscape:deskcolor="#d1d1d1"
     inkscape:zoom="0.8877545"
     inkscape:cx="527.17277"
     inkscape:cy="294.56342"
     inkscape:window-width="1920"
     inkscape:window-height="986"
     inkscape:window-x="-11"
     inkscape:window-y="-11"
     inkscape:window-maximized="1"
     inkscape:current-layer="g164" />
  <title
     id="title1">Blank map of the United States and its territories</title>
  <defs
     id="defs1">
    <style
       type="text/css"
       id="style1">
.state {fill:#D0D0D0}                        /* default color for all states and territories not specified below */
.borders {stroke:#FFFFFF; stroke-width:1}    /* color and width of borders between states */
.dccircle {display:yes}                      /* set display to yes to show the circle for the District of Columbia, or none to hide it */
.separator1 {stroke:#B0B0B0; stroke-width:2} /* color and width of lines around Alaska, Hawaii and territories */
.separator2 {stroke:#D0D0D0; stroke-width:1} /* color and width of lines between islands of the same territory */

/* Individual states and territories can be colored as follows:
.ks,.mt,.pa {fill:#0000FF}
.ca,.gu {fill:#FF0000}
In this example, Kansas, Montana and Pennsylvania are colored blue, and California and Guam are colored red.
Place this code in the empty space below. */



</style>
  </defs>
  <g
     class="state"
     id="g57">
    <path
       id="path2"
       class="jk"
       d="M 831.80078,299.69922 834,304 l 0.30078,1.30078 3.39844,5.5 1.80078,2.09961 1.30078,1 -1.40039,-2.80078 -2.20117,-3.40039 -2.39844,-3 -2.20117,-4.29883 z M 829,300.09961 799.90039,306.19922 760.5,313.5 l -29.40039,3.5 0.30078,-0.69922 -4.59961,0.5 -0.20117,1 -28.90039,3.29883 -5.59961,1.40039 -20.5,1.40039 -5.19922,0.79883 -17.40039,1 -2.59961,0.80078 -22.59961,2 -0.70117,-0.59961 h -3.69922 l 1.19922,3.19922 L 620,332 l -23.30078,1.5 -0.79883,1 -0.80078,-0.69922 h -1 v 1.29883 l 0.59961,1 -0.0996,1 -1.40039,0.5 1.40039,1.5 -0.79883,0.70117 -1.70117,-0.20117 0.59961,1 1.20117,1.09961 v 0.70117 l -1.20117,0.5 -1,2 -11.19922,0.79883 2.80078,-5.09961 1.69922,-1.5 v -2.19922 l -1.59961,-2.5 -39.80078,2 -39.09961,0.69922 4.09961,24.40039 -0.69922,39 2.59961,2.30078 2.80078,-1.30078 3.19922,0.80078 0.19922,11.89844 0.5,19.90039 0.70117,3.40039 2.59961,2.80078 0.69922,5.39844 3.80078,4.60156 0.80078,4.29883 h 1 l -0.10156,7.30078 -3.29883,6.40039 1.29883,2.29883 -1.29883,1.5 0.69922,3 -0.0996,4.30078 -2.19922,3.5 -0.10156,0.79883 -1.69922,1.20117 1,1.79883 1.19922,1.10156 1.60156,-1.30078 5.29883,-0.90039 6.09961,-0.0996 9.60156,3.80078 8,1 1.5,-1.40039 1.79883,-0.20117 4.80078,2.20117 L 562.5,490.5 l 1.09961,-1.5 -4.19922,-1.80078 -2.20117,1 L 556.09961,488 554.69922,486 558,483.80078 l 1.59961,-0.10156 v 1.70117 l 1.5,-0.0996 L 564.5,485 l 0.40039,2.30078 1.09961,0.39844 0.59961,1.90039 4.80078,1 1.69922,1.59961 v 0.70117 h -1.19922 l -1.5,1.69922 1.69922,1.20117 5.40039,1 2.69922,2.79883 4.40039,-1 -3.69922,0.20117 -0.0996,-0.60156 2.79883,-0.69922 0.20117,-1.80078 L 585,495.40039 V 494 l 1.09961,0.0996 v 1.59961 l 2.5,0.10156 0.80078,-1.90039 0.90039,0.29883 0.19922,2.5 1.19922,0.20117 -1.79883,2 L 592.5,498 l 2,-1.09961 2.90039,-3.30078 h -0.70117 l -1.29883,1.20117 -0.40039,-0.10156 -0.5,-0.79883 0.90039,-1.20117 v -2.29883 l 1.09961,-0.80078 0.69922,0.70117 1,-0.80078 1,-0.0996 0.60156,1.29883 -0.60156,1.90039 h 2.40039 l 5.09961,1.70117 0.5,1.29883 1.60156,1.40039 2.79883,0.0996 1.30078,0.70117 1.79883,-1 0.90039,-1.70117 v -1.69922 h -1.40039 L 613,492 611.90039,490.90039 608.69922,490 l -2.59961,0.19922 -4.19922,-2.39844 V 485.5 l 1.29883,-1 2.40039,0.59961 L 602.5,483.5 l 0.19922,-0.80078 h 3.60156 l 2.59961,-3.5 -2.59961,-1.79883 0.79883,-1.5 -1.19922,-0.80078 h -0.80078 l -2,2.09961 v 2.10156 L 602.5,480 601.40039,479.90039 599.80078,478.5 H 598.5 V 477 l 0.59961,-0.69922 0.80078,0.69922 1.69922,-1.59961 0.70117,-1.59961 0.79883,-0.30078 0.70117,0.0996 2.59961,-2.69922 0.59961,-0.0996 0.0996,-1.60156 0.5,-0.19922 0.90039,0.69922 7.90039,-2.5 2.40039,1.5 5,-0.0996 1.5,-1.29883 0.89844,-0.5 1.30078,0.0996 0.59961,0.40039 0.80078,-0.10156 2,-3.79883 v -2.30078 L 632,460 l 1.40039,0.5 3.40039,6.40039 v 0.90039 L 633.5,470 637,469.59961 641.90039,468 l 0.5,0.40039 1,-0.30078 0.69922,-0.79883 10.5,-2.70117 9.20117,-0.5 8.09961,1.90039 8.5,5 2.40039,0.80078 2.19922,2 -0.0996,2.69922 h 2.40039 l 1.89844,-1 2.5,0.0996 2,-0.79883 2.90039,-2 3.09961,-2.90039 1.10156,-0.40039 0.59961,0.5 h 1.40039 l 0.5,-0.80078 -0.5,-1.19922 -0.60156,-0.59961 0.20117,-0.80078 2,-1.09961 5,-0.40039 0.79883,1 1,0.0996 2.30078,1 3,1.80078 1.19922,1.69922 1.10156,1.20117 2.79883,1.40039 v 2.39844 l 2.80078,1.90039 1,0.0996 1.59961,1.40039 0.69922,1.59961 1,0.20117 L 729.5,483 l 0.69922,0.59961 1,-1.09961 2.90039,0.0996 0.5,1.40039 1.09961,0.90039 v 1.29883 l 2.90039,2.20117 L 738.80078,498 737,503.80078 738,505 737.80078,508.40039 737,509.80078 737.69922,511 740,513.30078 l 0.30078,1.5 0.79883,1 -0.40039,-1.90039 1.30078,-0.59961 0.80078,-3.60156 -3,-1.19922 0.0996,-0.59961 L 742.5,507.5 l 0.90039,2.59961 1.09961,0.59961 0.0996,-2 1.09961,0.30078 0.60156,0.80078 -0.10156,0.69922 -2.89844,4.19922 -0.20117,1.10156 -1.69922,1.89844 v 1.10156 l 3.69922,3.79883 5.30078,7.90039 1.79883,2.09961 v 1.80078 L 755,539 l 2.30078,0.59961 0.69922,-1.19922 -2.09961,0.29883 -3,-4.5 0.19922,-1.39844 1.5,-0.80078 v -1.5 L 754,529.19922 l 0.90039,-0.89844 0.40039,0.89844 0.69922,0.5 v 4 L 754.80078,533.09961 754,534 l 1.40039,1.59961 1,2.59961 1.19922,-0.59961 2.30078,1.20117 L 762,541 l 1.59961,5.09961 3.09961,4.80078 0.80078,-1.30078 2.80078,-0.5 3.19922,1.30078 0.30078,1.69922 3.29883,3.80078 0.0996,1.09961 2.20117,2.69922 -0.70117,0.5 v 2.70117 l 2.70117,1.40039 h 1.5 l 2.69922,-1.80078 1.5,0.30078 1.09961,0.39844 L 790.5,561.5 l 0.19922,-0.69922 1.20117,0.29883 2.40039,-1.69922 1.29883,-2.30078 -0.69922,-3.19922 -0.20117,-1.30078 1.10156,-4 0.59961,-0.19922 L 797,550 797.80078,548.19922 797,541 l -0.40039,-10.5 -1,-6.80078 -0.69922,-1.69922 -6.59961,-11.09961 -5.20117,-9.09961 -2.19922,-3.30078 -1.30078,-3.59961 -0.19922,-3.40039 0.90039,-0.30078 v -0.89844 l -1.10156,-2.20117 -4,-4 -7.59961,-9.69922 L 761.90039,464 757.59961,453.30078 757,449.59961 l -1.19922,-1 -0.5,-3.79883 -0.70117,-5.10156 -0.5,-2 2.30078,-6.19922 0.59961,-6 0.90039,-1.09961 v -2 l -1.5,-0.5 1.19922,-0.20117 4.20117,-6.19922 v -1.40039 l -0.90039,-0.40039 0.79883,-1.5 h 0.60156 l 1.79883,-1.5 0.5,-2 3.20117,-2.09961 0.29883,-2.40039 -1.19922,-0.89844 0.79883,-0.70117 L 768.5,403 l 1.30078,-0.40039 1.79883,-2.09961 3.80078,-1.80078 1.59961,-2.39844 0.0996,-0.70117 4.80078,-4.40039 -0.0996,-0.5 -0.90039,-0.79883 1.09961,-1.5 h 0.80078 l 0.39844,0.5 0.70117,-0.80078 h 1.29883 l 0.60156,-1.5 2.29883,-2.09961 -0.29883,-5.40039 0.79883,-2.29883 3.59961,-6.20117 2.40039,-2.19922 2.20117,-1.09961 4,-2.20117 3,-0.69922 H 805.5 l 1.09961,1.09961 0.80078,-2 0.59961,-5 1.69922,-3.90039 5.40039,-6.09961 4.09961,-3.5 5.40039,-2.30078 2.5,-0.39844 1.30078,0.39844 0.69922,1.10156 3.30078,-6.60156 3.29883,-5.29883 -0.69922,-0.30078 -4.40039,6.80078 -0.5,-0.80078 2,-2.19922 -0.40039,-1.5 -2,-0.5 1,1.29883 L 829.5,334.80078 828.30078,333 l -1.20117,2 -1.59961,0.19922 1,-2.69922 0.69922,-1.69922 -0.19922,-2.90039 -2.19922,-0.0996 0.89844,-0.90039 1.10156,0.29883 2.69922,0.10156 0.80078,-0.5 h 2.29883 l 2,-1.90039 0.20117,-3.20117 1.29883,-1.39844 1.20117,-0.20117 1.29883,-1 -0.5,-3.69922 -2.19922,-3.80078 -2.70117,-0.19922 -0.89844,1.59961 -0.5,-1 -2.70117,0.19922 -1.19922,0.40039 -1.90039,1.20117 -0.30078,-0.40039 h -0.89844 L 823,314.59961 l -2.59961,0.5 v -1.29883 l 0.79883,-1 1,0.69922 h 1 l 1.70117,-2.09961 3.69922,-1.70117 2,-2.19922 H 833 l 0.80078,1.30078 1.69922,0.79883 -0.5,-1.5 -0.30078,-1.59961 -2.79883,-3.09961 -0.30078,-1.40039 -0.40039,1 -0.89844,-1.30078 z m 8,11.5 v 1 l 2.5,2.20117 -0.19922,-1.40039 -1.40039,-1.59961 z m 4.19922,2.70117 1.70117,4.19922 0.40039,3.09961 v 3.70117 l -4.60156,3.29883 -2.69922,2.5 0.0996,1.40039 3.20117,-3.19922 3.09961,-2.40039 1.69922,-0.40039 -0.40039,-7.59961 -1,-3.20117 z M 590.59961,470 l 1.59961,0.0996 1.90039,1 0.80078,1.09961 2.5,0.10156 1.5,0.79883 0.19922,1.40039 -0.40039,0.59961 -0.89844,-1.5 -1.40039,1.20117 -0.90039,1.39844 -2.80078,0.80078 -1.59961,0.0996 -3.69922,-1 0.0996,-1.69922 2,-2 z m -4.5,0.69922 1.40039,0.60156 v 1.09961 l -1.80078,2 H 584.5 v -2.20117 z m 251.73437,73.32617 -2.60156,0.0996 -1.09961,1.09961 0.0996,1.90039 -3,1.40039 -0.0996,0.90039 1,1.29883 1.30078,0.5 0.5,2.70117 -0.80078,3.19922 0.0996,2.19922 -0.69922,1.60156 1,1.09961 0.19922,-0.90039 2.5,0.5 0.80078,-0.90039 2,0.20117 2,1.19922 4.09961,-1.19922 0.5,-0.90039 2.90039,1 h 3 l 2.59961,-0.80078 2.70117,1.30078 1.5,-0.59961 3,1.09961 0.89844,-0.80078 1.20117,0.80078 2.59961,-1.09961 0.90039,0.39844 0.79883,-0.69922 1.10156,0.0996 1.59961,0.20117 1.69922,-1.20117 1.30078,-1.59961 0.59961,-0.0996 1.09961,-2.40039 1,-1.5 2.5,-0.5 0.40039,-0.90039 0.59961,0.59961 0.30078,-0.89844 -1,-0.80078 0.0996,-2.5 0.30078,-1.19922 -1.60156,0.59961 -3.59961,-1.5 -3,-1 -2.79883,-0.30078 -3.20117,0.30078 -8.69922,-1.40039 -1.5,0.69922 -5.20117,-0.59961 -2.29883,0.40039 -2.70117,-0.40039 -3,0.20117 z m -13,3.79883 -0.10156,0.60156 h 0.80078 l -0.19922,-0.5 z m 62.19922,1.10156 0.59961,1 0.80078,1 0.69922,0.39844 -0.19922,-0.79883 1.29883,0.0996 v -0.69922 l -1.39844,-0.60156 -0.90039,0.20117 z m -89.5332,3.375 -1.69922,5.59961 -0.80078,1 -1,2.59961 -1.19922,1.59961 -0.70117,1.70117 L 790.19922,567 v 0.90039 l 2.70117,-2.80078 2.40039,-3.5 0.59961,-2 L 798,554.69922 Z m 88.5332,2.42383 -1.5,0.0996 -0.40039,0.40039 -1.40039,0.20117 -1.29883,0.59961 -1,0.19922 0.5,1 1,0.0996 1.19922,-0.39844 1,0.0996 0.90039,-0.20117 -0.0996,-0.29883 1.29883,-0.0996 0.60156,-0.40039 0.29883,0.29883 1.20117,-0.5 0.89844,-0.29883 -0.19922,-0.40039 -0.69922,0.19922 z M 789.19922,568 l -1.09961,0.30078 -1.40039,2 1.10156,-0.20117 1.5,-1.59961 z m -3.79883,2.90039 -3,1.40039 -1,1.29883 1.09961,0.0996 z m -8,1.90039 -2.40039,0.89844 -1.5,0.60156 -3.69922,3.29883 -1.60156,0.20117 V 578.5 l 2.30078,0.0996 3.90039,-2.5 h 2.40039 l 2.59961,-1.19922 -1.70117,-0.80078 z m -15.5,5.69922 -1,1.09961 1.69922,-0.0996 z"
       style="fill:#e39191;fill-opacity:1">
      <title
         id="title2">Jackson</title>
    </path>
    <!-- The scale of Alaska is 42% that of the contiguous United States, so its area is reduced to about 17.6%. The Islands of Four Mountains, Andreanof Islands, Rat Islands and Near Islands are not shown. -->
    <path
       id="path3"
       class="pc"
       d="M 88.5 5.1992188 L 88.5 6 L 89.699219 6.5996094 L 89.699219 5.1992188 L 88.5 5.1992188 z M 93.900391 6.5 L 92 7.0996094 L 93.5 12 L 92.199219 12.099609 L 93.199219 15.099609 L 94.400391 12.599609 L 95.300781 13.400391 L 95.300781 16.699219 L 94.099609 16.400391 L 94.099609 19 L 92.699219 15.800781 L 91.800781 15.800781 L 91.199219 19.900391 L 88.5 22.900391 L 90.400391 25.5 L 89.900391 28.5 L 91.400391 29.699219 L 91.400391 30.900391 L 92.900391 30.900391 L 93.300781 29 L 91.900391 26.699219 L 91 28 L 91.300781 26.199219 L 91.099609 23.800781 L 89.599609 23.300781 L 91.400391 22 L 92.400391 22.800781 L 93.099609 22.400391 L 92.199219 21.300781 L 92.400391 19.300781 L 93 20.900391 L 94.599609 22.599609 L 94.300781 24.199219 L 94 23.5 L 92.199219 23.599609 L 91.900391 25.900391 L 92.5 26.400391 L 93.099609 28.300781 L 93.699219 28.199219 L 93 25.300781 L 93.800781 24.400391 L 93.900391 27.900391 L 95.099609 29.300781 L 94.800781 30.699219 L 93.800781 30.599609 L 91.5 32.800781 L 91.300781 35.199219 L 89.900391 36 L 90.599609 38.099609 L 89.699219 37.800781 L 89.800781 40.5 L 89.599609 43.400391 L 88.300781 43.400391 L 88.199219 44.599609 L 87.5 44.900391 L 87.199219 44 L 86.400391 43.400391 L 86.199219 44.599609 L 84.199219 46.5 L 83.599609 46.599609 L 82.900391 47.400391 L 82.199219 47.400391 L 81.5 45.599609 L 81 46.599609 L 80.599609 45.199219 L 79.599609 47 L 79.800781 44.800781 L 77.599609 45.400391 L 78.900391 44.199219 L 81 44.599609 L 81.599609 44.199219 L 81.5 42 L 82.699219 40.800781 L 82.900391 41.900391 L 82.099609 43 L 82.199219 45 L 83 44.099609 L 83.699219 41.900391 L 84.5 41.199219 L 85.300781 41.699219 L 84.400391 42.800781 L 84.599609 44.199219 L 85.599609 44.400391 L 85.699219 42.599609 L 86.599609 41.599609 L 87.599609 39.699219 L 87.5 37.699219 L 86.800781 38.199219 L 85.5 38.199219 L 86.400391 37.099609 L 85.699219 36.5 L 86.5 35.699219 L 86.800781 37.300781 L 87.5 36.599609 L 87.5 34.900391 L 87.199219 33.800781 L 88.300781 34.699219 L 88.900391 33.900391 L 90.400391 33.900391 L 90.300781 29.900391 L 89.199219 29.900391 L 89.199219 31.300781 L 86.199219 33.599609 L 85.199219 35.199219 L 83.300781 35.400391 L 81.5 36.199219 L 78.900391 39 L 78.900391 39.599609 L 82.800781 39.099609 L 82.300781 40 L 79.900391 40.199219 L 77.699219 40.199219 L 77.800781 39.199219 L 79.900391 37 L 80.300781 36 L 84.099609 33.199219 L 84.5 31.099609 L 86.099609 30.699219 L 84.900391 34.099609 L 87.400391 31.199219 L 88.199219 30.5 L 88.300781 29 L 87.900391 27.599609 L 89 28.400391 L 89.400391 25.800781 L 88.300781 25.800781 L 87.599609 27.300781 L 87.5 25.699219 L 88.599609 25.099609 L 88.099609 24.400391 L 86.699219 24.599609 L 86.199219 27.199219 L 85.599609 24.5 L 84.900391 24.5 L 83.900391 26.099609 L 83.699219 23.099609 L 80.5 23.199219 L 75.400391 20.699219 L 70.699219 18.800781 L 62.900391 11.199219 L 62 11.099609 L 61.800781 11.699219 L 62.5 13.099609 L 60.5 15.400391 L 60.099609 18.099609 L 60 22.099609 L 61.400391 24.199219 L 61.900391 26.199219 L 61 32.300781 L 61.199219 35.900391 L 61.5 40.5 L 60.300781 43.599609 L 61.699219 42 L 63.400391 43.900391 L 65.599609 45.099609 L 62.400391 45.099609 L 61.800781 46.699219 L 60.900391 46.199219 L 60.699219 44.699219 L 60.5 48.900391 L 62 49.300781 L 63 49 L 64.099609 51 L 62.300781 50.599609 L 61.099609 54.800781 L 61.599609 57 L 60.5 54.699219 L 59.699219 54.900391 L 59.699219 56.900391 L 59.199219 56.400391 L 59.900391 50.400391 L 57.400391 57.900391 L 59 58.199219 L 59.699219 59.699219 L 61.699219 59.800781 L 62.900391 59.400391 L 65 60.900391 L 63.900391 62.199219 L 62.400391 62 L 61.900391 60.900391 L 60.900391 60.800781 L 60.199219 61.400391 L 58.199219 59.5 L 58.199219 63.800781 L 56.900391 65.099609 L 55.800781 68.599609 L 55.699219 70.900391 L 51.199219 83.199219 L 38 114.5 L 34.800781 119.09961 L 33.199219 119 L 33.300781 121.09961 L 28.099609 128.19922 L 27.800781 131.5 L 28.800781 132.80078 L 28.900391 135.19922 L 27.699219 136.30078 L 26.5 139.30078 L 26.599609 145 L 27.800781 147.90039 L 26.900391 150.40039 L 26.800781 158.80078 L 22.800781 168 L 22.900391 169.40039 L 21.199219 171.80078 L 14.300781 179.30078 L 14 184.5 L 19.5 195.59961 L 19.300781 202 L 17 205.59961 L 16.199219 216.30078 L 22.699219 229.09961 L 23.800781 233 L 23.099609 238.59961 L 28.5 244.69922 L 29.400391 244.80078 L 30.199219 243.80078 L 29.699219 242.5 L 31.199219 238.69922 L 32.599609 238.19922 L 34.5 241.19922 L 31.699219 242.69922 L 32.699219 244.40039 L 32.199219 245.5 L 33.599609 248.90039 L 33.599609 253.59961 L 29.900391 250.40039 L 29.900391 247.90039 L 30.699219 247.19922 L 30.800781 245.59961 L 28.300781 245.40039 L 28.099609 247.5 L 26.900391 251.69922 L 26.900391 259.19922 L 28.400391 262.69922 L 30.900391 266 L 33.400391 266 L 34.400391 266.90039 L 34.800781 270.09961 L 33 273.19922 L 30.599609 274 L 30 281.09961 L 32.900391 283.80078 L 34.900391 288.80078 L 34.699219 291.30078 L 36.300781 293.59961 L 36.699219 296.59961 L 39.400391 300.30078 L 43.400391 309.69922 L 44.800781 311.30078 L 43 316.40039 L 42.199219 321.19922 L 42 324 L 44.5 326.5 L 47.300781 326.80078 L 52 328.30078 L 55.099609 330.59961 L 58.800781 331.09961 L 61.5 333.30078 L 66 339.90039 L 67.5 341.80078 L 70.300781 343.09961 L 74.199219 343.69922 L 76.400391 344.90039 L 77.099609 348.59961 L 76 350.40039 L 78 352.30078 L 81.599609 352.19922 L 88.599609 360.80078 L 89.199219 362.30078 L 90.400391 363.69922 L 92.199219 368.5 L 92.599609 376.40039 L 92.400391 379.40039 L 93.400391 382.40039 L 137.40039 387.5 L 135.40039 389.30078 L 134.90039 392.19922 L 199.09961 429.69922 L 236.40039 435.09961 L 253.80078 311 L 265.30078 222.69922 L 233.19922 217.90039 L 236.5 196 L 245 141.19922 L 244.09961 141.09961 L 242.5 137 L 241.30078 135.19922 L 239.5 135.80078 L 236.69922 139.09961 L 227.69922 137.40039 L 225.59961 138.59961 L 218.69922 137 L 217.09961 139.30078 L 214.80078 137 L 214.80078 132.90039 L 214.40039 129.90039 L 212.09961 128.5 L 209.5 125 L 207 115.30078 L 207.5 112.09961 L 207 109.59961 L 205.09961 107.69922 L 201.5 110.09961 L 198.69922 111.5 L 197.09961 108.90039 L 195.69922 108.40039 L 196.19922 104.30078 L 203.30078 87.300781 L 203.30078 85.699219 L 200.09961 85.699219 L 198.69922 83.599609 L 197.80078 83.599609 L 195.5 80.599609 L 195.5 78.5 L 191.59961 70.199219 L 189.69922 69.5 L 186.09961 64.699219 L 187.69922 59.900391 L 184 52.5 L 188.80078 30.5 L 174.59961 27.5 L 151 22 L 119.30078 14 L 93.900391 6.5 z M 87.199219 11 L 87.699219 12.400391 L 88.300781 11.199219 L 87.199219 11 z M 85.400391 11.199219 L 84.5 11.300781 L 86.300781 12.800781 L 86.5 12.199219 L 85.400391 11.199219 z M 88.300781 12.300781 L 87.300781 13.699219 L 88.099609 14.099609 L 87.699219 15.199219 L 89.400391 14.699219 L 89.199219 12.5 L 88.300781 12.300781 z M 89.800781 12.5 L 90 14.900391 L 90.800781 14.5 L 91.699219 14.300781 L 91 12.800781 L 89.800781 12.5 z M 86 13.199219 L 84.599609 13.300781 L 84.900391 16 L 86.5 17.300781 L 87.099609 15.400391 L 86 13.199219 z M 89.199219 15.400391 L 88.099609 15.599609 L 87.400391 17 L 87.800781 18.300781 L 88.300781 18.900391 L 89.599609 18.599609 L 89.800781 17.599609 L 91 15.800781 L 90 15.400391 L 89.300781 17 L 89.199219 15.400391 z M 88.099609 35 L 87.900391 36.900391 L 88.800781 37.699219 L 89.199219 35 L 88.099609 35 z M 88.199219 39.900391 L 87 41.800781 L 86.900391 42.599609 L 87.300781 42.800781 L 87.800781 42.199219 L 88.900391 42.300781 L 88.199219 39.900391 z M 83.199219 44.199219 L 83 45 L 82.5 45.400391 L 82.699219 46.300781 L 83.400391 45.900391 L 83.300781 45.300781 L 83.800781 45 L 83.699219 44.199219 L 83.199219 44.199219 z M 51.400391 336.80078 L 51.400391 339.19922 L 53.400391 340.40039 L 57.800781 340.19922 L 58.800781 339.19922 L 55.699219 339 L 51.400391 336.80078 z M 45.5 336.90039 L 46.400391 339.59961 L 50.199219 339.59961 L 48.800781 337.40039 L 45.5 336.90039 z M 72.5 355.40039 L 71.300781 355.80078 L 73.099609 359.90039 L 75.699219 360.90039 L 76.400391 360.30078 L 75.099609 357.80078 L 72.5 355.40039 z M 69.400391 365.59961 L 69.599609 369 L 71.400391 370.90039 L 72.800781 370.80078 L 69.400391 365.59961 z M 114.59961 432.40039 L 110.09961 435.5 L 106.19922 435.5 L 106.59961 434.59961 L 104.80078 434.5 L 99.599609 437.90039 L 97.800781 437.90039 L 97.199219 437.09961 L 94.5 438.59961 L 90.900391 442.30078 L 88.099609 445 L 86.599609 446.19922 L 84 446.30078 L 81.800781 445.90039 L 79.5 444.59961 L 76.699219 448.5 L 76.599609 450.90039 L 79.199219 453.30078 L 81.300781 457.80078 L 81.5 463.09961 L 84.400391 465.09961 L 87.800781 465.5 L 88.5 466.30078 L 87 468.59961 L 87.699219 471.30078 L 86 468.69922 L 86 466.30078 L 84.5 466 L 84.599609 467.19922 L 85.300781 469.30078 L 88.199219 473 L 86.800781 473 L 84.599609 474.09961 L 78.400391 471.59961 L 78.300781 469.59961 L 79.699219 468.30078 L 79.699219 466.90039 L 77.599609 466.40039 L 75.300781 466.59961 L 70.5 466.80078 L 72 469.09961 L 70.099609 467.30078 L 61.699219 468.5 L 60.900391 470 L 65.800781 474.69922 L 65 476.09961 L 64.699219 478.09961 L 64 478.90039 L 63.900391 480.80078 L 68.300781 484.40039 L 72.400391 484.59961 L 77 486.5 L 79 486.5 L 79.800781 485.90039 L 83.599609 486 L 83.699219 485.19922 L 84.900391 486.30078 L 85 488.30078 L 82.5 488.19922 L 82.599609 491.5 L 83.099609 494.69922 L 80.199219 497.40039 L 78.300781 497.30078 L 76.300781 496.5 L 75.300781 496.59961 L 72.199219 498.69922 L 70.5 498.90039 L 69.099609 496.09961 L 66 496.09961 L 63.800781 498.09961 L 63.300781 499.90039 L 60 501.69922 L 54.699219 506 L 54.400391 509.09961 L 55.099609 511.30078 L 56.099609 512.5 L 57.099609 512.09961 L 58 513.09961 L 57.199219 513.69922 L 55.699219 514.59961 L 56.800781 516.09961 L 54.199219 517.19922 L 55 519.40039 L 56.699219 521.69922 L 57.5 525.80078 L 61.5 527.30078 L 64.099609 526.5 L 65.800781 525.40039 L 66.300781 527.5 L 66.599609 531.90039 L 64.699219 533.30078 L 64.699219 537.69922 L 64.099609 538.59961 L 62.400391 538.59961 L 64.099609 539.80078 L 66.199219 539.69922 L 66.599609 538.69922 L 71.199219 538.09961 L 73.199219 540.69922 L 74.5 540 L 75.800781 545.09961 L 76.800781 545.59961 L 77.800781 544.90039 L 77.900391 542.5 L 78.800781 541.5 L 79.5 542.59961 L 79.699219 544.19922 L 81.300781 544.59961 L 86 543.40039 L 86.199219 544.59961 L 84.199219 545.69922 L 82.599609 547.40039 L 79.800781 554.40039 L 75.5 556.40039 L 74.099609 557.90039 L 73.800781 559.30078 L 72.800781 558.69922 L 63.5 562 L 61.699219 566.09961 L 60.400391 565.69922 L 60.900391 564.59961 L 59.400391 563.19922 L 55.900391 563 L 50.599609 566.19922 L 48.400391 567.5 L 46.099609 567.5 L 45.599609 569.90039 L 47.300781 569.80078 L 46.900391 568.40039 L 48.099609 568.59961 L 48.199219 570 L 50 570 L 50.400391 567.5 L 50.699219 569.90039 L 53.199219 569.80078 L 56.400391 566.5 L 57.199219 566.59961 L 56.5 567.90039 L 57.900391 568.80078 L 62.099609 568.59961 L 64.699219 567.40039 L 66.099609 567.30078 L 66.400391 568.80078 L 67 568.30078 L 67.400391 566.90039 L 73.300781 567.09961 L 75.199219 565.5 L 73.900391 564.40039 L 74.5 563.19922 L 77.099609 563.40039 L 76.900391 562.19922 L 79.400391 562.40039 L 80.099609 561.30078 L 81.199219 561.5 L 85.800781 559.59961 L 86 557.90039 L 91.599609 555.5 L 93.599609 553.59961 L 94.800781 553 L 96.099609 553.80078 L 98.400391 552.90039 L 99.5 551 L 100 549.69922 L 101.69922 548.80078 L 103.19922 548.09961 L 103.59961 546.69922 L 102.5 545 L 100.30078 544.80078 L 100.09961 543.5 L 100.90039 541.90039 L 102.30078 541.69922 L 103.59961 540.19922 L 105.5 540.09961 L 108.90039 536.90039 L 109.30078 535.5 L 110.80078 533.19922 L 114.59961 529.09961 L 117.09961 528.19922 L 119 527.30078 L 121.09961 528.09961 L 122.5 530.69922 L 121 530.69922 L 119.59961 529.19922 L 116.59961 531.19922 L 114.90039 531.30078 L 114.69922 534.40039 L 111.59961 539.30078 L 112.19922 541.30078 L 114.5 541.30078 L 113.90039 542.30078 L 112.5 542.40039 L 110.09961 544.19922 L 110.09961 545.09961 L 112 546.09961 L 115.40039 545.5 L 116.80078 543.80078 L 118.19922 543.90039 L 121.19922 542.19922 L 121.69922 539.90039 L 123.30078 539.80078 L 129.59961 540.59961 L 130.59961 539.5 L 131.59961 535 L 130 536.09961 L 130.59961 533.90039 L 129 532.5 L 129.80078 531 L 129.90039 532.5 L 133.30078 532.5 L 134 531.5 L 135.59961 531.40039 L 135.30078 533.09961 L 137.19922 533.19922 L 135.30078 534.5 L 139.40039 535.59961 L 135.90039 536 L 134.59961 537.19922 L 135.5 538.59961 L 140.09961 536.90039 L 142.40039 538.59961 L 143.09961 537.69922 L 143.69922 539.09961 L 147.69922 541.40039 L 150.59961 541.40039 L 154.5 540.90039 L 158.80078 542 L 160.80078 543.90039 L 165.30078 544.30078 L 167.09961 542.80078 L 167.90039 545.19922 L 166.09961 545.90039 L 167.30078 547.09961 L 174.69922 550.90039 L 176.09961 553.40039 L 181.5 557.5 L 184.80078 555.5 L 184.19922 553.30078 L 180.69922 551.30078 L 183.80078 552.5 L 184.30078 551.80078 L 185.19922 553.09961 L 185.19922 555.80078 L 187.30078 555.19922 L 189.40039 557 L 186.90039 547.19922 L 188.09961 548.5 L 189.5 554.5 L 191.69922 557 L 194.09961 556.59961 L 195.90039 560.09961 L 196.80078 560.09961 L 197.40039 565.69922 L 200.80078 566.19922 L 202.40039 568.40039 L 204.19922 569.5 L 204.59961 572.30078 L 202.80078 574.90039 L 205.69922 576.5 L 206.90039 574.09961 L 206.69922 577.19922 L 205.90039 578.09961 L 207.30078 579.80078 L 208 577.40039 L 207.80078 576.19922 L 208.59961 576.40039 L 209.19922 578.69922 L 208.19922 580.09961 L 208.80078 582.69922 L 209.30078 583.09961 L 209.59961 581.5 L 210.30078 582.09961 L 210 584.09961 L 211.19922 584.30078 L 210.80078 585.19922 L 212.5 585.09961 L 212.5 584.09961 L 211.5 584.09961 L 211.59961 582.40039 L 210.80078 581.80078 L 212.5 581.5 L 213 580.69922 L 213 579.09961 L 213.5 580.40039 L 212.90039 582.19922 L 214.09961 586.09961 L 215.90039 586.19922 L 218.09961 582 L 218.19922 580.09961 L 216.90039 576.09961 L 216.80078 574.90039 L 217.30078 573.69922 L 216.59961 573 L 214.90039 573.09961 L 212.40039 571.09961 L 210.69922 571.09961 L 208.69922 569.69922 L 207.19922 569.69922 L 206.69922 568.09961 L 205.30078 567.80078 L 205.09961 566.30078 L 204.09961 565.80078 L 204.19922 564.09961 L 199.09961 556.69922 L 197.30078 555.19922 L 197.30078 554 L 193 550.5 L 192.30078 549.40039 L 190.69922 547.40039 L 188.80078 546.80078 L 188.80078 544.59961 L 187.59961 543.30078 L 185.90039 542.59961 L 183.80078 543.90039 L 182.19922 546 L 181.80078 548.40039 L 180.30078 548.5 L 177.80078 551.19922 L 177 550.90039 L 177 548.40039 L 174.59961 546.19922 L 172.30078 544.19922 L 171.80078 542.19922 L 169.30078 540.90039 L 169.5 538.69922 L 166.69922 538.59961 L 166 539.69922 L 164.80078 539.69922 L 164.09961 539 L 162.90039 539.80078 L 161.09961 538.59961 L 161.09961 452.80078 L 154.19922 448.69922 L 152.40039 448.19922 L 150.19922 449.30078 L 148 449.40039 L 145.69922 447.80078 L 141.40039 447.19922 L 135.59961 443.59961 L 129.90039 443.19922 L 127.90039 443.69922 L 127.69922 441.90039 L 125.90039 441.19922 L 127 440.19922 L 126.80078 439.30078 L 123.59961 438.19922 L 121.19922 438.19922 L 120.80078 438.59961 L 119.90039 438 L 120 435.40039 L 119.19922 434.5 L 116.69922 437.40039 L 115.90039 437.30078 L 115.90039 436.5 L 117.59961 435.69922 L 117.59961 434.90039 L 115.69922 432.5 L 114.59961 432.40039 z M 58.800781 474.59961 L 58.900391 475.69922 L 59.900391 475.69922 L 59.800781 474.59961 L 58.800781 474.59961 z M 42 479.09961 L 40.599609 480.59961 L 39.599609 482.69922 L 40.599609 483.40039 L 43.199219 483.5 L 44.699219 485.69922 L 45.599609 487.80078 L 46.400391 488.59961 L 48.5 488.5 L 49.900391 489.69922 L 50.599609 488.59961 L 50.699219 487.90039 L 48.900391 486.69922 L 46.800781 484.80078 L 46.800781 483.19922 L 46.199219 482.09961 L 43.900391 482.09961 L 42 480.30078 L 42 479.09961 z M 75 494.30078 L 74.199219 495.09961 L 75.900391 495.59961 L 75.900391 494.40039 L 75 494.30078 z M 23.699219 502.40039 L 22.699219 503.09961 L 23 504.69922 L 23.300781 505.80078 L 25 506.59961 L 25.800781 506.80078 L 25.800781 506.30078 L 23.800781 504.30078 L 23.699219 502.40039 z M 241.30078 509.80078 L 237.09961 512.69922 L 237.30078 515 L 239.69922 516.19922 L 241.59961 517.5 L 244.30078 517.90039 L 246.90039 515.69922 L 246.69922 513.80078 L 247.5 512.09961 L 247.5 510.69922 L 246.5 509.80078 L 241.30078 509.80078 z M 230.5 514.59961 L 230.19922 515.80078 L 228.30078 516.69922 L 227.69922 518.5 L 228.69922 519.30078 L 229.80078 517.80078 L 231.69922 517.19922 L 232.09961 514.59961 L 230.5 514.59961 z M 49.599609 516.5 L 48.300781 516.59961 L 47.199219 517.09961 L 46.300781 516.69922 L 44.800781 516.80078 L 44.099609 517.69922 L 45.199219 519.69922 L 46.199219 520.09961 L 48.300781 521.90039 L 50.699219 522.09961 L 51.900391 520.09961 L 52 519.19922 L 51.199219 517.30078 L 49.599609 516.5 z M 274.30078 521.5 L 273.09961 522.19922 L 271.19922 524.30078 L 268.30078 524.90039 L 269.09961 527.09961 L 271.30078 529.90039 L 271.40039 530.90039 L 273.5 530.59961 L 275.80078 530.69922 L 277.5 531.90039 L 281 531.09961 L 281 530.40039 L 280 529.59961 L 279.5 527.5 L 278.69922 527.19922 L 278.19922 528.19922 L 277 526.90039 L 277.19922 525.5 L 275.40039 522.19922 L 274.30078 521.5 z M 289.09961 532.80078 L 288 535.19922 L 293 535.19922 L 297.80078 536.80078 L 300.30078 535.19922 L 300.5 533.69922 L 295.69922 533.90039 L 289.09961 532.80078 z M 20.5 536.09961 L 20.900391 537.30078 L 21.699219 536.09961 L 20.5 536.09961 z M 301.69922 536.69922 L 300.59961 538.19922 L 300.5 539.90039 L 303.19922 542.30078 L 305.09961 542.80078 L 305.69922 543.80078 L 306.09961 546.80078 L 309.69922 547 L 315 544.40039 L 314.90039 541.90039 L 313.5 541.40039 L 310 538.80078 L 308.19922 538.5 L 305.30078 539.80078 L 303.80078 537.09961 L 301.69922 536.69922 z M 133.30078 537.09961 L 129.30078 541.19922 L 129.30078 542.80078 L 131.40039 542 L 132.19922 540.09961 L 134.40039 537.69922 L 133.30078 537.09961 z M 296.90039 539.40039 L 293.19922 539.5 L 294.90039 543.5 L 298 542.90039 L 298.30078 540.90039 L 296.90039 539.40039 z M 21.199219 542.40039 L 21.599609 543.59961 L 22.400391 543 L 21.199219 542.40039 z M 303.59961 546.5 L 301.09961 546.80078 L 300.19922 548.19922 L 304.19922 548.30078 L 303.59961 546.5 z M 105.69922 549.90039 L 102.40039 553.5 L 101.69922 553.69922 L 101.69922 554.30078 L 103.5 555.5 L 103.69922 554.09961 L 104.30078 555 L 107.80078 555.09961 L 108.5 554.5 L 108.69922 552.69922 L 108.19922 552 L 106.80078 552 L 106.80078 551.19922 L 107.19922 550.59961 L 107.19922 550.19922 L 105.69922 549.90039 z M 319.09961 553.5 L 317 553.69922 L 316.80078 556.90039 L 318.5 558.80078 L 318.59961 560 L 313.80078 564.5 L 313.69922 565.69922 L 315.59961 568.90039 L 317.30078 573.09961 L 317.30078 575.69922 L 316.80078 576.90039 L 316.90039 580.30078 L 321 582.40039 L 322.09961 583.5 L 323.30078 582.40039 L 325.40039 578.80078 L 329.90039 575.90039 L 333.19922 575.40039 L 335.69922 574.40039 L 337.40039 573.19922 L 340.59961 569.69922 L 337.80078 568.59961 L 336.40039 567.19922 L 336.5 565.5 L 336 564.90039 L 334 564.90039 L 334.19922 562.40039 L 333.5 561.19922 L 330.90039 558.90039 L 326.40039 557 L 323.59961 556.80078 L 320.30078 554.09961 L 319.09961 553.5 z M 100.80078 555.40039 L 98.400391 555.69922 L 98.199219 559.09961 L 97.400391 557.09961 L 95.900391 557 L 94.900391 557.59961 L 93.599609 559.90039 L 95.099609 565.69922 L 97.199219 565.69922 L 99.599609 563.19922 L 99.900391 564.40039 L 106.19922 560.40039 L 106.90039 559.40039 L 105.90039 558.30078 L 105.90039 557.59961 L 106.40039 556.30078 L 105.5 556.19922 L 103.5 557.19922 L 103.5 556 L 100.80078 555.40039 z M 190 555.40039 L 189.80078 556.09961 L 190.69922 557.59961 L 191.19922 561.30078 L 192.69922 563.19922 L 192.69922 564.30078 L 192.09961 565 L 192.19922 566.30078 L 192.69922 567.69922 L 194.69922 565.80078 L 194.69922 565.09961 L 195.90039 564.30078 L 195.90039 563 L 193.90039 559.80078 L 194.5 559.19922 L 193.5 557.09961 L 191.09961 557.19922 L 190 555.40039 z M 186 556.80078 L 185.30078 557.30078 L 183.69922 557.30078 L 182.80078 557.69922 L 182.59961 560.19922 L 183.80078 561.40039 L 185.09961 563.69922 L 186.69922 565.30078 L 186.59961 568.59961 L 188 567.59961 L 188 567.09961 L 187.69922 566 L 188.40039 566 L 189 567.69922 L 189.19922 570.40039 L 190.80078 572 L 191.30078 573.5 L 192.5 575.5 L 193.30078 575.19922 L 192.90039 573.09961 L 192.90039 569.69922 L 191 565.40039 L 191.19922 564.59961 L 189.90039 564.69922 L 188.19922 563.5 L 187.40039 564.09961 L 187.30078 563.19922 L 186.69922 561.90039 L 187.80078 562.09961 L 190 563.59961 L 190.90039 563.59961 L 190.40039 561.59961 L 188.59961 561.59961 L 187.5 560.30078 L 188.90039 561 L 189.69922 561 L 190.19922 560.5 L 190.09961 559 L 186 556.80078 z M 79.900391 563.5 L 79.900391 564.30078 L 81.699219 564.19922 L 81.300781 563.59961 L 79.900391 563.5 z M 93.599609 566.09961 L 91.5 567.40039 L 91.400391 568.09961 L 93.199219 567.59961 L 94.199219 567 L 94.599609 567.59961 L 96.800781 567.80078 L 95.5 566.59961 L 94.199219 566.40039 L 93.599609 566.09961 z M 195.5 566.59961 L 195.30078 567.5 L 197.90039 570.30078 L 198 572 L 199.30078 571.80078 L 200.09961 571.90039 L 200.30078 570.69922 L 199.30078 569.40039 L 199.59961 568.69922 L 200.80078 570.30078 L 200.90039 571 L 202 571.19922 L 203.09961 570.59961 L 203.30078 570.09961 L 199.90039 566.90039 L 197.40039 566.80078 L 195.5 566.59961 z M 43.900391 567.09961 L 39.800781 567.69922 L 37 569.09961 L 36.900391 571 L 38.800781 571.69922 L 40.300781 570.80078 L 42 570.69922 L 46.699219 572.09961 L 46.800781 570.80078 L 45.199219 569.69922 L 45.199219 567.5 L 43.900391 567.09961 z M 194 568.09961 L 193.80078 569.30078 L 193.69922 570.5 L 195.80078 572.69922 L 194.69922 574.09961 L 195.09961 576.30078 L 195.90039 576.69922 L 196.30078 575.5 L 197.09961 575.19922 L 197.09961 573.69922 L 196.59961 573.19922 L 196.69922 571.40039 L 197.5 571.5 L 197.69922 570.69922 L 195.30078 568.19922 L 194 568.09961 z M 54.300781 569.30078 L 53.599609 570.09961 L 55 571.19922 L 55.300781 570 L 54.300781 569.30078 z M 62.300781 569.30078 L 61.599609 569.90039 L 60.699219 569.40039 L 59.199219 569.40039 L 59 571.19922 L 60.400391 572 L 61.599609 571.40039 L 61.599609 570.40039 L 63.300781 570.09961 L 63.199219 569.5 L 62.300781 569.30078 z M 29.5 570.19922 L 29 571 L 29.900391 572.09961 L 31.199219 572 L 31.199219 571 L 30.5 570.30078 L 29.5 570.19922 z M 24.099609 570.30078 L 22 573.69922 L 17.300781 574.19922 L 18.400391 575.59961 L 20.400391 575.59961 L 21.5 574.90039 L 22.5 575.40039 L 24.900391 575.5 L 29.099609 573.59961 L 29.099609 573.09961 L 28 571.59961 L 27.099609 571.40039 L 26.800781 572 L 26.300781 570.80078 L 25.400391 570.80078 L 24.099609 570.30078 z M 33.300781 570.40039 L 32 570.5 L 32.099609 572 L 33.199219 571.40039 L 33.300781 570.40039 z M 50.099609 570.59961 L 50.800781 571.5 L 51.5 570.69922 L 50.099609 570.59961 z M 63.599609 571.40039 L 63.300781 572.40039 L 62 572.5 L 61.599609 572.69922 L 61.599609 574 L 61.099609 574.90039 L 61.699219 574.90039 L 62.400391 574 L 63.199219 573.90039 L 64.099609 572.90039 L 64.300781 571.59961 L 63.599609 571.40039 z M 86.199219 571.40039 L 85.099609 572.19922 L 86.599609 573.59961 L 87.400391 572.90039 L 87.300781 571.59961 L 86.199219 571.40039 z M 15.800781 572 L 14.800781 573 L 12.300781 573.30078 L 12 574.40039 L 9.8007812 575.30078 L 13.5 575.40039 L 16 574.09961 L 17.900391 573.90039 L 18.900391 572.69922 L 18.199219 572 L 15.800781 572 z M 202.80078 572 L 201.59961 572.40039 L 201.5 573.5 L 202.69922 573.5 L 202.80078 572 z M 65.599609 572.19922 L 64.599609 573.19922 L 64.599609 573.69922 L 65.300781 574.80078 L 66.300781 573.80078 L 65.599609 573.69922 L 65.599609 572.19922 z M 35.699219 572.59961 L 32.300781 572.69922 L 32.199219 573.09961 L 33.099609 573.30078 L 33.5 573.90039 L 34.300781 573.30078 L 34.599609 573.80078 L 35.900391 573.69922 L 35.699219 572.59961 z M 200.40039 573.09961 L 198 573.59961 L 198.19922 575.90039 L 197.59961 577.19922 L 198.69922 577.40039 L 199.30078 576.90039 L 199.90039 577.80078 L 199.40039 578.19922 L 198 578.09961 L 199.69922 579.40039 L 201.30078 580 L 201.80078 580.80078 L 201.80078 581.80078 L 199.90039 582.80078 L 200 583.69922 L 204.09961 588.09961 L 205 588 L 204.80078 585.90039 L 203.09961 585.69922 L 202 582.90039 L 202.59961 582.90039 L 205.69922 585.30078 L 207 587.59961 L 208.40039 587.59961 L 208.09961 582.5 L 206.19922 580.90039 L 204.90039 577.5 L 200.40039 573.09961 z M 46.599609 573.59961 L 46.699219 574.80078 L 48.400391 574.69922 L 46.599609 573.59961 z M 66 575.40039 L 66 575.90039 L 66.699219 576 L 66.599609 575.40039 L 66 575.40039 z M 198.69922 580.09961 L 198.59961 580.30078 L 198.62109 580.30273 L 198.69922 580.09961 z M 198.62109 580.30273 L 198.19922 581.40039 L 198.59961 582.19922 L 199.69922 582.30078 L 200.69922 580.40039 L 198.62109 580.30273 z "
       style="fill:#919ee3;fill-opacity:1">
      <title
         id="title3">Pacifica</title>
    </path>
    <path
       id="path7"
       class="ft"
       d="M 188.80078 30.5 L 184 52.5 L 187.69922 59.900391 L 186.09961 64.699219 L 189.69922 69.5 L 191.59961 70.199219 L 195.5 78.5 L 195.5 80.599609 L 197.80078 83.599609 L 198.69922 83.599609 L 200.09961 85.699219 L 203.30078 85.699219 L 203.30078 87.300781 L 196.19922 104.30078 L 195.69922 108.40039 L 197.09961 108.90039 L 198.69922 111.5 L 201.5 110.09961 L 205.09961 107.69922 L 207 109.59961 L 207.5 112.09961 L 207 115.30078 L 209.5 125 L 212.09961 128.5 L 214.40039 129.90039 L 214.80078 132.90039 L 214.80078 137 L 217.09961 139.30078 L 218.69922 137 L 225.59961 138.59961 L 227.69922 137.40039 L 236.69922 139.09961 L 239.5 135.80078 L 241.30078 135.19922 L 242.5 137 L 244.09961 141.09961 L 245 141.19922 L 236.5 196 L 233.19922 217.90039 L 265.30078 222.69922 L 253.80078 311 L 236.40039 435.09961 L 252.09961 437.30078 L 253.5 427.09961 L 284.30078 431.19922 L 286.69922 432.19922 L 288.40039 435.90039 L 289.69922 437.30078 L 289.5 438.5 L 291.59961 440.30078 L 294.59961 441.59961 L 297.80078 446 L 300.40039 448.30078 L 301 450.40039 L 303.90039 452.19922 L 303.90039 453.30078 L 305.80078 454.90039 L 306.69922 455 L 309.09961 456.69922 L 309.80078 457.80078 L 311 458 L 311 459 L 312.59961 460.59961 L 313.19922 464.80078 L 315.80078 468.90039 L 315.90039 471.30078 L 315.09961 472.80078 L 315.80078 474.09961 L 315.59961 475.69922 L 317.90039 479.69922 L 318 481.69922 L 321.40039 484.80078 L 322.40039 484.90039 L 324 486.09961 L 323.80078 486.90039 L 327.19922 490.30078 L 329.30078 491.09961 L 330.59961 491.30078 L 332.30078 493.59961 L 335.90039 494.09961 L 337.90039 497 L 338.90039 497 L 340.69922 498.5 L 343.59961 498.40039 L 343.69922 496.59961 L 345 496 L 345.90039 494.40039 L 347 494.30078 L 348.40039 493.09961 L 349.5 488.69922 L 351.5 485.5 L 353.19922 482.69922 L 356.5 481.5 L 358.69922 482.09961 L 360 480.19922 L 364.19922 482.30078 L 368.80078 482.30078 L 371.40039 483.40039 L 373.59961 483.40039 L 374.90039 482.30078 L 375.59961 482.90039 L 376.40039 482.90039 L 378.5 485.69922 L 379.30078 485.90039 L 379.30078 486.59961 L 380.5 487 L 380.59961 488.80078 L 383.90039 490.5 L 383.90039 491.59961 L 389 496.40039 L 390.80078 499.5 L 390.90039 501.19922 L 393.59961 506.09961 L 393.5 508.19922 L 395.5 510.40039 L 395.40039 511.09961 L 396.80078 512.59961 L 396.30078 513.30078 L 396.09961 514.90039 L 397.09961 515.59961 L 397.30078 517.69922 L 400.19922 520.19922 L 402.19922 521.80078 L 403.09961 524.19922 L 403.90039 524.40039 L 404.69922 526.09961 L 404.59961 528 L 408.59961 531.5 L 409.69922 531.5 L 411.40039 532.90039 L 412.19922 536.09961 L 411.5 539.09961 L 412.80078 540.5 L 413.09961 542.69922 L 412.5 545.30078 L 413.90039 545.90039 L 413.90039 547.5 L 415.59961 548.90039 L 416.69922 550.59961 L 417.59961 555.30078 L 419 557.09961 L 419 558.40039 L 424.40039 560 L 427.59961 562.59961 L 429.69922 562.5 L 431.40039 563.5 L 435 566.5 L 437.80078 567.30078 L 444.90039 567.30078 L 447.19922 567.90039 L 450.59961 571.59961 L 452 571.80078 L 452.90039 572.09961 L 452.69922 570.69922 L 454.30078 569.30078 L 456.5 569.5 L 456.59961 568.80078 L 454.40039 566.19922 L 453.30078 564.09961 L 453.30078 561.5 L 452.5 559.80078 L 451.40039 559.40039 L 451 557.90039 L 452 557.5 L 452.40039 555.30078 L 451.80078 552.19922 L 450.19922 550.80078 L 450.19922 547.69922 L 451.5 546.80078 L 451.19922 545.40039 L 451 544.19922 L 452.09961 544.30078 L 452.5 541.09961 L 450.59961 541.69922 L 448.80078 541.09961 L 451.69922 540.69922 L 453.09961 539.69922 L 454.09961 538 L 454.40039 535.19922 L 456.19922 531.69922 L 455.19922 530.90039 L 453.90039 530.09961 L 453.59961 528.69922 L 455.40039 527.59961 L 457 528.19922 L 458.59961 527.5 L 460.40039 524.19922 L 460.80078 522.5 L 461.59961 521.80078 L 463.09961 521.59961 L 465.80078 519.59961 L 465.30078 518.5 L 465.80078 516.40039 L 467 517.59961 L 468.69922 517.5 L 472.59961 515.80078 L 473.30078 515 L 471.5 513.40039 L 470.30078 512.5 L 468.90039 511.80078 L 468.09961 509.59961 L 469.59961 509.59961 L 469.90039 511.30078 L 471.69922 512.5 L 474.30078 511.19922 L 475.40039 509.69922 L 476.90039 509.80078 L 477.09961 511.59961 L 476.5 512.40039 L 476.5 513.5 L 473.30078 516.5 L 477.40039 514 L 481.90039 512.09961 L 485.59961 510.09961 L 490.59961 507.09961 L 493.80078 505.69922 L 497.80078 501.80078 L 502.69922 497.80078 L 505 496.19922 L 505 495.40039 L 503.69922 495.09961 L 500.40039 491.69922 L 500.09961 490 L 502 487.40039 L 504.40039 486.09961 L 505 486.09961 L 505.90039 487.90039 L 505.09961 489.90039 L 505.80078 490.69922 L 508.69922 490.80078 L 508.19922 491.69922 L 506.40039 492.40039 L 504.30078 494.69922 L 505 495.19922 L 506.80078 493.40039 L 510.30078 492 L 518.69922 488.09961 L 522.19922 487.80078 L 521 486.69922 L 520 484.90039 L 521.69922 483.69922 L 521.80078 482.90039 L 524 479.40039 L 524.09961 475.09961 L 523.40039 472.09961 L 524.69922 470.59961 L 523.40039 468.30078 L 526.69922 461.90039 L 526.80078 454.59961 L 525.80078 454.59961 L 525 450.30078 L 521.19922 445.69922 L 520.5 440.30078 L 517.90039 437.5 L 517.19922 434.09961 L 516.69922 414.19922 L 516.5 402.30078 L 513.30078 401.5 L 510.5 402.80078 L 507.90039 400.5 L 508.59961 361.5 L 504.5 337.09961 L 504.30078 326.30078 L 503.80078 278.19922 L 500.59961 277.5 L 498 272.80078 L 495.5 270.30078 L 496 268 L 498.69922 265.40039 L 498.80078 264.19922 L 497.30078 262.09961 L 496.40039 263.09961 L 494.40039 262.5 L 491.5 259.5 L 487.59961 253.19922 L 485.5 249.5 L 485.80078 248.09961 L 484.5 246.80078 L 482.69922 242.40039 L 483.40039 240.19922 L 482.59961 236.90039 L 482.80078 234 L 481.5 233.30078 L 481.09961 227.19922 L 478.30078 222.19922 L 478.09961 218.5 L 475.90039 214.19922 L 474.59961 210.5 L 474.59961 209.09961 L 474 207.40039 L 474 205.09961 L 473.5 204.19922 L 472.80078 202.5 L 472.5 201.19922 L 471.19922 200 L 472.19922 195.69922 L 473.90039 190.59961 L 473.19922 188.59961 L 471.90039 188.19922 L 471.5 186.59961 L 472.5 186.09961 L 472.59961 185 L 471.30078 183.5 L 471.40039 181.90039 L 473.59961 182 L 473.80078 142.5 L 472.30078 140.59961 L 469.69922 140 L 469.30078 138.19922 L 467.59961 135.69922 L 467.90039 134.5 L 471 132.59961 L 471.90039 130.59961 L 472 128.40039 L 472.09961 126.30078 L 471.80078 120.5 L 468.90039 113.09961 L 469.30078 107.30078 L 468.30078 104.59961 L 467.59961 90.599609 L 466.30078 88.099609 L 463.59961 79 L 464.09961 77.900391 L 464.40039 72.800781 L 463.59961 71.400391 L 464.69922 68.599609 L 462.30078 61.300781 L 407 59.699219 L 362.5 56.300781 L 309 50.699219 L 254.69922 43 L 188.80078 30.5 z M 471.09961 517.69922 L 468.5 518.69922 L 464.90039 521 L 464.19922 522.5 L 456 534.09961 L 453.19922 542 L 453.19922 550.80078 L 456.80078 562.80078 L 457.19922 567.30078 L 458 567.40039 L 457.40039 562.59961 L 453.90039 550.30078 L 453.69922 542.19922 L 458.59961 531.69922 L 464.69922 523.5 L 471.90039 518.40039 L 471.90039 517.69922 L 471.09961 517.69922 z "
       style="fill:#e2c07c;fill-opacity:1">
      <title
         id="title7">Frontier</title>
    </path>
    <path
       id="path8"
       style="fill:#5866bc;fill-opacity:1"
       class="ol"
       d="M 891.09961 36.699219 L 884.40039 43.300781 L 881.69922 42.300781 L 880.69922 38.400391 L 878 38.400391 L 871.09961 57.900391 L 871.80078 64.099609 L 870.09961 66.5 L 869.69922 71.099609 L 871 74.800781 L 871.80078 75 L 871.80078 76.599609 L 870.19922 81.099609 L 868.69922 82.5 L 867.40039 84.699219 L 867 92.5 L 864.59961 91.5 L 863.09961 91.900391 L 862.59961 93.599609 L 861.30078 93.699219 L 860.30078 92.599609 L 858.40039 94 L 857.90039 100.09961 L 830.59961 107 L 810 112.19922 L 807.5 112.09961 L 805.40039 113.80078 L 799.5 120.19922 L 795.80078 126.5 L 795.09961 128.90039 L 788.90039 135 L 789 138.09961 L 791.30078 139.5 L 792.80078 139.5 L 792.90039 141.30078 L 790.90039 142.59961 L 792.09961 143.30078 L 793.5 146 L 793.09961 149.19922 L 792 149.69922 L 790.09961 150.09961 L 787.69922 153.19922 L 785.19922 155.80078 L 782.59961 157.09961 L 779.59961 157.09961 L 776.19922 157.80078 L 774.40039 159.40039 L 773.5 159.5 L 770.30078 157.90039 L 765.90039 157.90039 L 757.69922 159.5 L 750.09961 163.40039 L 750.30078 166.59961 L 752.09961 169.59961 L 753.80078 170.09961 L 755.5 173.40039 L 754.69922 174.5 L 752.40039 176.5 L 751.80078 178.90039 L 747.90039 181.40039 L 747.30078 183.09961 L 743 187 L 738.80078 190.40039 L 737.90039 190.5 L 735.19922 193.5 L 731.90039 195.19922 L 736.80078 225.09961 L 740 244.80078 L 757.40039 241.90039 L 759.09961 253.30078 L 760.90039 251.69922 L 761.80078 250.09961 L 764.90039 246.19922 L 767.09961 246.5 L 769.69922 242.69922 L 771.59961 243.69922 L 774.90039 243.30078 L 776.59961 240.40039 L 777.90039 240.40039 L 778.80078 239 L 780.19922 238.69922 L 782.40039 240.30078 L 785 239.90039 L 784.80078 240.90039 L 785.59961 242.09961 L 786.30078 242.09961 L 786.5 242.80078 L 787.5 243.30078 L 787.30078 244.90039 L 788.19922 245.30078 L 787.80078 246 L 787.40039 247.59961 L 786.90039 249.90039 L 776.90039 244.69922 L 776.69922 245.59961 L 777.59961 247.19922 L 776.80078 249.5 L 776.90039 252.40039 L 775.69922 253.19922 L 775.19922 255.30078 L 774.30078 256.09961 L 772.90039 257.90039 L 772 258.69922 L 771 261.19922 L 768.59961 260.09961 L 766.30078 268.59961 L 765 270.19922 L 762.19922 269.69922 L 760.90039 267.80078 L 758.59961 267.09961 L 758.5 271.80078 L 757.09961 273.5 L 757.5 275 L 755.40039 277.19922 L 755.80078 279.09961 L 752.09961 285.40039 L 751.09961 288.69922 L 752.59961 289.90039 L 751.09961 291.80078 L 751.19922 293.19922 L 748.90039 295.19922 L 748.19922 294.09961 L 743.90039 297.19922 L 742.40039 296.19922 L 741.80078 297.59961 L 742.59961 298.09961 L 742.09961 299 L 736.59961 301.40039 L 733.59961 299.59961 L 732.80078 301.30078 L 730.90039 303.09961 L 728.59961 303.19922 L 724.19922 300.90039 L 724.09961 299.40039 L 722.59961 298.69922 L 723.40039 297.5 L 722.69922 296.90039 L 717.80078 303.5 L 714.90039 304.5 L 711.90039 307.5 L 711.5 309.69922 L 709.40039 311 L 709.30078 312.69922 L 707.90039 314.09961 L 706.09961 314.59961 L 705.59961 316.5 L 704.59961 316.90039 L 697.69922 321.09961 L 726.59961 317.80078 L 726.80078 316.80078 L 731.40039 316.30078 L 731.09961 317 L 760.5 313.5 L 799.90039 306.19922 L 829 300.09961 L 828.40039 298.90039 L 828.80078 298.80078 L 829.69922 299.69922 L 829.59961 298.30078 L 829.30078 296.40039 L 830.90039 297.59961 L 831.80078 299.69922 L 831.80078 298.40039 L 828.40039 292.90039 L 828.40039 291.69922 L 827.69922 290.90039 L 826.40039 291.59961 L 826.90039 293 L 826.09961 293 L 825.69922 292 L 825.09961 292.90039 L 824.19922 291.80078 L 822.09961 291.69922 L 821.90039 292.40039 L 823.40039 294.5 L 822 293.80078 L 821.5 292.80078 L 821.09961 293.59961 L 820.30078 293.69922 L 818.80078 295.40039 L 819.09961 293.80078 L 819.09961 292.40039 L 817.59961 291.69922 L 815.80078 291.19922 L 815.59961 289.5 L 815 288.19922 L 814.40039 289.30078 L 812.69922 288.30078 L 810.69922 288.59961 L 810.90039 287.69922 L 812.40039 287.5 L 813.30078 288 L 815 287.19922 L 815.90039 287.59961 L 816.40039 288.59961 L 816.40039 289.30078 L 818.30078 289.69922 L 818.59961 290.59961 L 819.5 291 L 820.40039 292.19922 L 821.80078 290.59961 L 822.40039 290.59961 L 822.30078 288.5 L 821 289.5 L 820.40039 288.59961 L 821.90039 288.40039 L 820.69922 287.5 L 819.5 288.09961 L 819.40039 286.40039 L 817.69922 286.59961 L 815.5 285.5 L 813.69922 283.30078 L 817.30078 285.5 L 818.19922 285.80078 L 819.90039 285 L 818.19922 284.09961 L 818.80078 283.5 L 817.80078 283 L 818.59961 282.80078 L 818.30078 281.90039 L 819.40039 282.80078 L 819.80078 282 L 820.19922 283.30078 L 821.40039 284.09961 L 822 283.59961 L 821.5 283 L 821.40039 280.5 L 820.30078 280.40039 L 818.69922 279.59961 L 819.59961 278.5 L 817.59961 278.40039 L 817.19922 277.90039 L 815.80078 278.5 L 814.40039 277.69922 L 813.90039 276.5 L 811.80078 275.30078 L 809.69922 273.5 L 807.5 271.59961 L 810.5 272.90039 L 811.40039 274.09961 L 813.5 274.80078 L 815.80078 277.30078 L 816 275.59961 L 816.59961 276.90039 L 818.90039 277.40039 L 818.90039 273.40039 L 818.09961 272.30078 L 819.19922 272.69922 L 819.30078 271.09961 L 816.19922 269.69922 L 814.59961 269.5 L 813.30078 269.30078 L 813.59961 268.09961 L 812.09961 267.80078 L 812 267.19922 L 810.19922 267.19922 L 810 268 L 809.30078 267 L 806.59961 267 L 805.59961 266.59961 L 805.40039 265.59961 L 804.19922 265 L 803.80078 263.5 L 803.19922 263.09961 L 802.5 264.19922 L 801.59961 264.40039 L 800.69922 265.09961 L 799.19922 265.09961 L 798.30078 263.80078 L 798.69922 260.69922 L 799.19922 258.30078 L 799.80078 258.80078 L 800.09961 259.30078 L 799.30078 261.40039 L 799.69922 263.69922 L 800.80078 264.5 L 802.40039 263.19922 L 803.19922 262.5 L 803.80078 262.69922 L 804.80078 264 L 805.80078 265 L 807.5 265.80078 L 807.90039 265.59961 L 809.09961 265.90039 L 810.09961 265.40039 L 811.5 265.69922 L 813.19922 267.09961 L 814.40039 267.30078 L 814.80078 267.09961 L 816.30078 268.30078 L 817 268.30078 L 817 267.30078 L 816.59961 265.90039 L 815 263.90039 L 814.59961 261.09961 L 813 259.69922 L 811.69922 258.30078 L 811 254.90039 L 810.09961 253.80078 L 810.59961 252.5 L 810.59961 250.40039 L 811.09961 249.09961 L 810.59961 248.80078 L 811.69922 247.80078 L 810.80078 246.59961 L 811 245.90039 L 809.69922 244.59961 L 808.40039 244 L 810.19922 243.5 L 810.80078 241.30078 L 811.5 240.40039 L 812.40039 240.80078 L 815 237.19922 L 814 235.90039 L 814.80078 234.80078 L 816.30078 234.40039 L 816.09961 236.5 L 816.40039 237.19922 L 815.90039 237.80078 L 816.40039 238.59961 L 815 238.80078 L 813.90039 240.19922 L 812.80078 242.59961 L 813 244.30078 L 813.90039 246.40039 L 814.90039 245.40039 L 815.30078 247.09961 L 814.09961 247.80078 L 813.19922 246.90039 L 812.30078 247.90039 L 812.09961 250.30078 L 812.69922 251.30078 L 813.69922 249.90039 L 814.59961 248.80078 L 815.59961 249.69922 L 815.5 251.30078 L 814.69922 250.59961 L 813.69922 251.59961 L 813.59961 255 L 814.19922 254.69922 L 814.59961 253.59961 L 815.90039 253.69922 L 816 254.40039 L 817.40039 255 L 815.69922 255.30078 L 815.09961 256.30078 L 815.09961 257.19922 L 816.09961 257.80078 L 814.59961 258.59961 L 816 260.30078 L 817 261.40039 L 817.19922 262.59961 L 819.19922 263.59961 L 820.30078 263.09961 L 821 262.5 L 820.5 261.69922 L 821.19922 260.09961 L 822 260.69922 L 821.59961 262 L 822.30078 262.80078 L 824.19922 263.19922 L 823 263.5 L 823 265.5 L 824.59961 264.5 L 824.40039 266 L 825.19922 266.5 L 824.80078 267.19922 L 825.09961 269.69922 L 826.40039 269.09961 L 826.80078 268.19922 L 828.09961 268 L 827.69922 268.90039 L 828.40039 269.19922 L 828.19922 271.09961 L 827.69922 270.59961 L 826.40039 271.59961 L 827.40039 272 L 825.59961 276.40039 L 825.69922 284.5 L 827.59961 287.59961 L 828.09961 286.09961 L 828.5 283.40039 L 828.19922 281.09961 L 828.90039 280.19922 L 828.69922 278.80078 L 829.90039 278.19922 L 829.30078 277.69922 L 829.80078 277 L 830.59961 278.09961 L 830.40039 279.19922 L 830 283.09961 L 831.09961 280.90039 L 831.5 277.80078 L 831.59961 274.80078 L 831.30078 272.80078 L 831.90039 270.5 L 833 268.69922 L 833.09961 266.5 L 833.40039 265.59961 L 833.69922 264.5 L 834.5 263.09961 L 834.69922 261 L 835.40039 260.09961 L 836 260.69922 L 835.90039 263.19922 L 834.69922 265.40039 L 833.59961 268.19922 L 834.09961 269.30078 L 834.5 268.19922 L 835.30078 265.09961 L 836.30078 263.30078 L 836.40039 260.19922 L 836.40039 254.90039 L 834.19922 247.30078 L 833.09961 247.80078 L 829.80078 245.19922 L 829.30078 243.5 L 827.5 242.5 L 827.30078 238.80078 L 825.19922 236.59961 L 824.09961 235.80078 L 822.90039 234.69922 L 822.5 231.5 L 823.30078 232.40039 L 823.69922 234.69922 L 824.90039 235.30078 L 827.30078 236.80078 L 829.09961 237.59961 L 830.69922 238.40039 L 830.80078 239.5 L 831.59961 239.59961 L 832.69922 238.40039 L 833.5 238.80078 L 835.59961 239 L 835.40039 241.90039 L 835.59961 244.40039 L 837.40039 243.69922 L 838.90039 239.80078 L 840.5 235 L 843.40039 232.19922 L 844 228.69922 L 843.40039 227.5 L 845.09961 224.59961 L 845.09961 223.40039 L 844.40039 222.30078 L 845.59961 219.59961 L 845.30078 216 L 844.69922 207.80078 L 843.5 206.40039 L 843.5 207.80078 L 844 208.40039 L 842.90039 208.40039 L 842.30078 208 L 841 207.80078 L 840.09961 208.40039 L 838.90039 206.80078 L 839.59961 205.09961 L 839.59961 204.09961 L 841.30078 203.40039 L 842.09961 201.30078 L 842.30078 202 L 843.80078 199.69922 L 845.30078 198 L 846.59961 194.69922 L 852 190.19922 L 853.69922 188.90039 L 854.5 188.90039 L 856.90039 185.80078 L 858.30078 185.90039 L 861.19922 184.80078 L 863.30078 184.80078 L 868.59961 182.09961 L 871.40039 181.19922 L 872.40039 180.19922 L 873.90039 180.69922 L 879.5 177.09961 L 879.59961 174.09961 L 878.80078 173.30078 L 879.19922 172.69922 L 879.09961 171.40039 L 878.19922 170.69922 L 879.40039 170.30078 L 878.5 168.69922 L 880.30078 169.40039 L 880.59961 170.80078 L 881.30078 172 L 879.90039 171.19922 L 881 172.90039 L 880.69922 174.09961 L 880.09961 173 L 880.09961 175.5 L 880.69922 174.59961 L 881.09961 175.5 L 882.40039 174 L 882.19922 171.5 L 883.59961 174.59961 L 884.59961 173.69922 L 885 172.69922 L 886.09961 172.90039 L 887.30078 171.80078 L 886.90039 170.59961 L 887.19922 169.5 L 888.40039 169.5 L 889.40039 168.30078 L 889.5 167 L 890.40039 167.09961 L 890.69922 168.40039 L 891.19922 169 L 890.69922 170.90039 L 887.40039 174.19922 L 888.59961 174.19922 L 890.59961 172.30078 L 892.59961 170.19922 L 894.80078 169 L 894.90039 167.80078 L 896.5 166.80078 L 897.40039 167.09961 L 900.90039 164.80078 L 901.59961 165.80078 L 901.59961 167.59961 L 902.59961 164.80078 L 901.40039 161.5 L 900.09961 158.80078 L 897.80078 156.69922 L 896 156.30078 L 894.69922 157.40039 L 895.90039 158.40039 L 896.30078 157.5 L 897.09961 157.5 L 898.59961 161.09961 L 898.90039 160.19922 L 900.09961 162.30078 L 899 162.59961 L 897.40039 163.80078 L 896.59961 164.69922 L 894.69922 164.80078 L 892.80078 164.80078 L 891.80078 164.09961 L 891.19922 162.09961 L 890.40039 161 L 888.59961 160.90039 L 888.40039 158.30078 L 885.90039 155.69922 L 884.09961 155.69922 L 883 155.09961 L 882.69922 155.90039 L 881.80078 156.09961 L 881.19922 155.09961 L 882 154.40039 L 881.09961 153.19922 L 882.40039 152.90039 L 882 152.09961 L 882.90039 151.09961 L 882.69922 150.30078 L 885.69922 147.90039 L 885.69922 146.80078 L 884.90039 145.5 L 883.80078 146.80078 L 882.80078 146.40039 L 881.09961 143.09961 L 881.90039 138.30078 L 883.30078 138 L 884.30078 135 L 883.5 132.09961 L 885.09961 131.19922 L 885.59961 128.40039 L 885 127.09961 L 888.30078 125.19922 L 886.09961 122.90039 L 887 120.5 L 888.40039 118.30078 L 888.90039 121.5 L 890.5 119.5 L 891.80078 120.40039 L 893 119.59961 L 893 117.90039 L 896.19922 116.59961 L 896.5 113.69922 L 899 113.5 L 901.69922 109.80078 L 901.69922 109.09961 L 900.80078 108.59961 L 900.69922 105.30078 L 901.30078 104.19922 L 901.5 105.80078 L 902.5 105.30078 L 902.30078 102.09961 L 901.40039 102.40039 L 901.30078 103.59961 L 900.09961 102.19922 L 901 100.80078 L 901.59961 100.90039 L 902.69922 100.5 L 903.19922 103.30078 L 905.19922 103 L 908.09961 103.69922 L 908.09961 102.69922 L 907 101.5 L 908.30078 101.59961 L 908.40039 99.300781 L 909 100.09961 L 909.30078 102 L 911.40039 103.5 L 911.59961 102.5 L 912.5 102.30078 L 912.19922 101.5 L 913 100.90039 L 912.90039 99.300781 L 911.30078 99.099609 L 909.30078 99.800781 L 910.69922 98.199219 L 911.40039 97.400391 L 912.69922 97.199219 L 913.09961 98.5 L 914.80078 100.09961 L 915.19922 98 L 917.5 96.800781 L 916.59961 95.5 L 916.69922 93.800781 L 917.80078 94.300781 L 918.5 94.300781 L 920.19922 92.900391 L 920.59961 90.599609 L 922.80078 90.900391 L 922.90039 90.199219 L 923.09961 88.599609 L 923.59961 90 L 925.09961 89 L 927.40039 84.900391 L 927.30078 82.699219 L 925.90039 80.699219 L 922.90039 77.5 L 921 77.5 L 920.19922 79.699219 L 917.30078 76.699219 L 917.59961 75.900391 L 917.59961 74.400391 L 916 69.900391 L 915.19922 69.699219 L 914.5 70.099609 L 909.69922 70.099609 L 909.40039 66.5 L 901.30078 40.5 L 894 36.800781 L 891.09961 36.699219 z M 905.80078 103.30078 L 905.40039 104.5 L 904.90039 105 L 905.80078 106.30078 L 906.80078 106.80078 L 907.09961 105.80078 L 907.09961 104 L 905.80078 103.30078 z M 909.59961 104 L 908.59961 104.80078 L 908.59961 106.09961 L 909.30078 105.30078 L 910.19922 106.09961 L 910.59961 105.59961 L 911.69922 105.80078 L 910.69922 105 L 911.09961 104.19922 L 909.59961 104 z M 903.80078 105.90039 L 902.19922 108.30078 L 903.90039 110 L 904.80078 110.19922 L 905.80078 109.19922 L 905.80078 108.09961 L 904.80078 107.30078 L 904.59961 106.19922 L 903.80078 105.90039 z M 907.90039 106.59961 L 906.90039 107.69922 L 907.40039 108.09961 L 907.30078 109.09961 L 908.40039 109.09961 L 908.40039 107.30078 L 907.90039 106.59961 z M 902.40039 170.5 L 902.80078 171.5 L 901.30078 173 L 899 173 L 899.09961 173.80078 L 899.90039 174.19922 L 903.30078 174.19922 L 904.19922 173.59961 L 904.30078 172.30078 L 902.40039 170.5 z M 893.30078 171.30078 L 892.5 171.5 L 891.30078 172.5 L 890.69922 174.59961 L 889.69922 175.40039 L 890.90039 176 L 892 174.69922 L 894.80078 174 L 896.09961 173.69922 L 895.59961 171.80078 L 895 172.40039 L 893.90039 172.19922 L 893.30078 171.30078 z M 879.09961 181 L 878.40039 181.69922 L 878.5 182.90039 L 879.40039 182.90039 L 879.90039 182.30078 L 879.09961 181 z M 872.90039 181.59961 L 871.59961 181.69922 L 871.09961 182.69922 L 872.90039 181.59961 z M 869 184.5 L 868.30078 185.40039 L 867.59961 185.40039 L 866.5 186.19922 L 866.30078 187.19922 L 864.09961 189.30078 L 863.69922 190.19922 L 862.30078 191.09961 L 854.59961 193 L 854.80078 193.90039 L 853.90039 194.59961 L 851.90039 194.90039 L 850.90039 194.30078 L 850.69922 195.40039 L 849.59961 195 L 849.69922 196 L 848.5 195.90039 L 847.30078 196.40039 L 847.09961 197.5 L 846.09961 197.5 L 846.30078 198.5 L 845.59961 198.5 L 845.80078 199.5 L 844 199.90039 L 842.5 202.19922 L 842.30078 204.30078 L 843 204.90039 L 844.30078 204.59961 L 845.40039 204.90039 L 846.30078 203.59961 L 848.19922 203.59961 L 850.59961 202.69922 L 855.69922 200.59961 L 855.19922 200.09961 L 853.30078 200.90039 L 851.30078 201.80078 L 851.5 201 L 854.09961 199.90039 L 854.90039 198.90039 L 856.09961 199 L 860.19922 196.69922 L 860.19922 197.40039 L 856 200.40039 L 860.5 197.59961 L 862.19922 195.40039 L 863.69922 195.30078 L 868.19922 192.19922 L 871.40039 189.09961 L 874.40039 186.80078 L 875.40039 185.59961 L 873.69922 185.5 L 872.69922 186.69922 L 872.5 187.40039 L 871.59961 188.09961 L 870.80078 187 L 869.09961 188 L 869 188.90039 L 868.09961 188.69922 L 868.59961 187.80078 L 867.40039 187.09961 L 866.80078 188 L 867.69922 188.30078 L 867.90039 188.80078 L 867.59961 189.30078 L 866.19922 191.90039 L 864.30078 191.90039 L 865.19922 190.09961 L 866.09961 189.5 L 866.40039 187.80078 L 867.80078 186.19922 L 868.69922 185.40039 L 870.19922 184.69922 L 869 184.5 z M 841.5 203.90039 L 839.90039 204.30078 L 839.90039 205.30078 L 839.19922 206.90039 L 839.80078 207.59961 L 842.19922 205.30078 L 842.09961 204.40039 L 841.5 203.90039 z M 821.30078 263.59961 L 820 264.5 L 820.80078 266.30078 L 822.5 267.09961 L 822.09961 265.5 L 821.30078 263.59961 z M 822.09961 267.59961 L 822.09961 269.40039 L 822 270 L 822.90039 269.90039 L 822.90039 269.30078 L 822.90039 267.59961 L 822.09961 267.59961 z M 829.5 284.19922 L 828.5 286.90039 L 829.69922 285.59961 L 829.5 284.19922 z ">
      <title
         id="title8">Olympia</title>
    </path>
    <!-- Hawaii is shown in the same scale as the contiguous United States. The Northwestern Hawaiian Islands are not shown. -->
    <path
       id="path14"
       class="ln"
       d="M 493.09961 53.699219 L 493.19922 61.699219 L 462.30078 61.300781 L 464.69922 68.599609 L 463.59961 71.400391 L 464.40039 72.800781 L 464.09961 77.900391 L 463.59961 79 L 466.30078 88.099609 L 467.59961 90.599609 L 468.30078 104.59961 L 469.30078 107.30078 L 468.90039 113.09961 L 471.80078 120.5 L 472.09961 126.30078 L 472 128.40039 L 471.90039 130.59961 L 471 132.59961 L 467.90039 134.5 L 467.59961 135.69922 L 469.30078 138.19922 L 469.69922 140 L 472.30078 140.59961 L 473.80078 142.5 L 473.59961 182 L 471.40039 181.90039 L 471.30078 183.5 L 472.59961 185 L 472.5 186.09961 L 471.5 186.59961 L 471.90039 188.19922 L 473.19922 188.59961 L 473.90039 190.59961 L 472.19922 195.69922 L 471.19922 200 L 472.5 201.19922 L 472.80078 202.5 L 473.5 204.19922 L 474 205.09961 L 474 207.40039 L 474.59961 209.09961 L 474.59961 210.5 L 475.90039 214.19922 L 478.09961 218.5 L 478.30078 222.19922 L 481.09961 227.19922 L 481.5 233.30078 L 482.80078 234 L 482.59961 236.90039 L 483.40039 240.19922 L 482.69922 242.40039 L 484.5 246.80078 L 485.80078 248.09961 L 485.5 249.5 L 487.59961 253.19922 L 491.5 259.5 L 494.40039 262.5 L 496.40039 263.09961 L 497.30078 262.09961 L 498.80078 264.19922 L 498.69922 265.40039 L 496 268 L 495.5 270.30078 L 498 272.80078 L 500.59961 277.5 L 503.80078 278.19922 L 504.30078 326.30078 L 504.5 337.09961 L 543.59961 336.40039 L 583.40039 334.40039 L 585 336.90039 L 585 339.09961 L 583.30078 340.59961 L 580.5 345.69922 L 591.69922 344.90039 L 592.69922 342.90039 L 593.90039 342.40039 L 593.90039 341.69922 L 592.69922 340.59961 L 592.09961 339.59961 L 593.80078 339.80078 L 594.59961 339.09961 L 593.19922 337.59961 L 594.59961 337.09961 L 594.69922 336.09961 L 594.09961 335.09961 L 594.09961 333.80078 L 595.09961 333.80078 L 595.90039 334.5 L 596.69922 333.5 L 620 332 L 620.59961 331.09961 L 619.40039 327.90039 L 623.09961 327.90039 L 623.80078 328.5 L 646.40039 326.5 L 649 325.69922 L 666.40039 324.69922 L 671.59961 323.90039 L 692.09961 322.5 L 697.69922 321.09961 L 704.59961 316.90039 L 705.59961 316.5 L 706.09961 314.59961 L 707.90039 314.09961 L 709.30078 312.69922 L 709.40039 311 L 711.5 309.69922 L 711.90039 307.5 L 714.90039 304.5 L 717.80078 303.5 L 722.69922 296.90039 L 723.40039 297.5 L 722.59961 298.69922 L 724.09961 299.40039 L 724.19922 300.90039 L 728.59961 303.19922 L 730.90039 303.09961 L 732.80078 301.30078 L 733.59961 299.59961 L 736.59961 301.40039 L 742.09961 299 L 742.59961 298.09961 L 741.80078 297.59961 L 742.40039 296.19922 L 743.90039 297.19922 L 748.19922 294.09961 L 748.90039 295.19922 L 751.19922 293.19922 L 751.09961 291.80078 L 752.59961 289.90039 L 751.09961 288.69922 L 752.09961 285.40039 L 755.80078 279.09961 L 755.40039 277.19922 L 757.5 275 L 757.09961 273.5 L 758.5 271.80078 L 758.59961 267.09961 L 760.90039 267.80078 L 762.19922 269.69922 L 765 270.19922 L 766.30078 268.59961 L 768.59961 260.09961 L 771 261.19922 L 772 258.69922 L 772.90039 257.90039 L 774.30078 256.09961 L 775.19922 255.30078 L 775.69922 253.19922 L 776.90039 252.40039 L 776.80078 249.5 L 777.59961 247.19922 L 776.69922 245.59961 L 776.90039 244.69922 L 786.90039 249.90039 L 787.40039 247.59961 L 787.80078 246 L 788.19922 245.30078 L 787.30078 244.90039 L 787.5 243.30078 L 786.5 242.80078 L 786.30078 242.09961 L 785.59961 242.09961 L 784.80078 240.90039 L 785 239.90039 L 782.40039 240.30078 L 780.19922 238.69922 L 778.80078 239 L 777.90039 240.40039 L 776.59961 240.40039 L 774.90039 243.30078 L 771.59961 243.69922 L 769.69922 242.69922 L 767.09961 246.5 L 764.90039 246.19922 L 761.80078 250.09961 L 760.90039 251.69922 L 759.09961 253.30078 L 757.40039 241.90039 L 740 244.80078 L 736.80078 225.09961 L 731.90039 195.19922 L 722.59961 200.30078 L 718.80078 203.40039 L 713.90039 209.30078 L 708.69922 209.59961 L 705.09961 211.69922 L 702.59961 213.40039 L 701.09961 213.5 L 698.90039 212 L 696.5 212.40039 L 694.90039 213.90039 L 693 213.09961 L 695 212 L 698.09961 211.5 L 698.19922 210.5 L 696.69922 210.5 L 695.40039 209.69922 L 694.40039 211.19922 L 693.40039 211.19922 L 692.69922 210.30078 L 690.59961 209.69922 L 687.59961 208.40039 L 685.69922 208.80078 L 684.80078 207.69922 L 685.30078 206.5 L 689.19922 200.59961 L 689.19922 196.30078 L 690 194.19922 L 692.19922 193.40039 L 694.19922 185.59961 L 695.19922 185.09961 L 696.19922 185.69922 L 696 186.30078 L 694.90039 187.09961 L 695.19922 188 L 696 188.40039 L 697.90039 187 L 698.30078 177.19922 L 696.69922 174.90039 L 695.5 171.19922 L 695.5 168.69922 L 693.19922 164.30078 L 693.19922 162.5 L 692 159.19922 L 689.69922 156.19922 L 686.80078 155.19922 L 682 158.19922 L 679.5 162.80078 L 679.30078 163.69922 L 676.30078 167.19922 L 674.80078 167 L 671.90039 164.19922 L 671.80078 160.80078 L 673.30078 158.90039 L 675.30078 158.69922 L 676.5 157 L 676.69922 153 L 677.5 152.19922 L 678.59961 152.09961 L 679.5 150.40039 L 679.30078 140.80078 L 679 139.5 L 677.80078 138.30078 L 676.09961 137.30078 L 676 135.5 L 676.69922 134.90039 L 678.5 135.69922 L 678.19922 134 L 676.30078 131.30078 L 675.59961 129.69922 L 674.5 128.59961 L 672.30078 128.59961 L 664.19922 125.69922 L 662.80078 124 L 659.69922 123.69922 L 658.5 124 L 654.09961 121.69922 L 652.69922 121.69922 L 653.19922 122.69922 L 650.5 122.59961 L 650.59961 123.19922 L 651.19922 123.80078 L 648.69922 125.90039 L 648.80078 127.69922 L 650.30078 130 L 651.80078 130.19922 L 651.80078 130.80078 L 650.30078 131.30078 L 648.19922 131.19922 L 645.40039 133.69922 L 645.5 136.19922 L 645.90039 142 L 643.69922 145.40039 L 644.5 140.90039 L 643.69922 140.30078 L 642.80078 145.59961 L 641.80078 143.30078 L 642.30078 141 L 641.80078 140 L 642.40039 138.69922 L 641.80078 137.59961 L 642.80078 136.59961 L 642.80078 135.40039 L 641.5 136 L 640.19922 139.09961 L 639.5 139.80078 L 638.19922 142.19922 L 636.5 142 L 636.40039 143.19922 L 634.80078 143.19922 L 635 144.69922 L 635.19922 146.69922 L 632.19922 147.90039 L 632.30078 149.19922 L 633.30078 150.90039 L 633.19922 156.09961 L 631.90039 160.5 L 630.19922 163 L 631.40039 164.40039 L 632.19922 167.90039 L 631.19922 170.40039 L 631 172.5 L 632.69922 175.90039 L 635.19922 180.80078 L 636.40039 182.69922 L 638 189.59961 L 637.90039 198.40039 L 637 202.30078 L 635 205.5 L 634.09961 209.19922 L 632.09961 212.19922 L 630.90039 213.19922 L 629.19922 214.80078 L 624.09961 217.09961 L 619.40039 215.69922 L 617.80078 212.5 L 616.59961 208.40039 L 613.19922 203.80078 L 613.09961 199.19922 L 612.80078 195.19922 L 613.19922 192.19922 L 611.90039 190.69922 L 611.90039 188 L 610.80078 187.09961 L 611.30078 186 L 610.5 184.30078 L 610.80078 184 L 609.80078 182.5 L 611.30078 177.5 L 612.40039 173.40039 L 612 169.69922 L 611.69922 168.09961 L 612.59961 165 L 612.30078 163.09961 L 614.69922 161.19922 L 614.59961 159.90039 L 614 157.90039 L 614.30078 153.69922 L 617.09961 146.5 L 617.80078 146 L 619 141.5 L 619.59961 141.40039 L 620.30078 139.19922 L 619.80078 138 L 620.80078 137.90039 L 620.80078 135.90039 L 619.40039 135.80078 L 618.40039 136.69922 L 618.40039 138.19922 L 616.59961 139.30078 L 616.19922 141.40039 L 615.5 142.30078 L 614.69922 145.59961 L 611.19922 146.69922 L 609.59961 150.90039 L 607.59961 152 L 607.09961 153.59961 L 606.30078 154.30078 L 605.69922 153.59961 L 605.90039 150.5 L 608.30078 147.09961 L 608.09961 144.80078 L 611 144 L 611.30078 141 L 612.09961 139.19922 L 615 134.59961 L 616.59961 128.59961 L 618.90039 126.59961 L 618.40039 125 L 618.90039 124.09961 L 619.90039 125.69922 L 619.59961 127.90039 L 622.5 125.69922 L 622.69922 123.40039 L 624.80078 124 L 625.59961 122.40039 L 626.30078 123 L 625.59961 124.5 L 624.59961 125 L 623.59961 127 L 625 128.80078 L 626.09961 128.30078 L 625.59961 127.59961 L 626.59961 126.09961 L 628.5 124.40039 L 629.30078 124.40039 L 629.5 121.80078 L 631.5 120 L 639.40039 119.5 L 641.30078 116.40039 L 645.09961 116.09961 L 648.90039 117.30078 L 653.09961 120 L 653.80078 119.80078 L 653.59961 116.30078 L 654.30078 116.09961 L 658.80078 117.19922 L 660.30078 117 L 663.19922 116.30078 L 664.90039 116.69922 L 666.69922 116.80078 L 666.69922 115.69922 L 666 114.80078 L 664.5 114.59961 L 663.40039 113.80078 L 663.90039 112.40039 L 663.09961 112.09961 L 660.5 112.19922 L 660.40039 111.19922 L 661.5 110.40039 L 662.09961 111.19922 L 662.59961 109.40039 L 661.90039 108.69922 L 662.59961 108.5 L 661.19922 107.19922 L 661.5 105.90039 L 661.59961 104 L 660.30078 104 L 658.80078 105 L 656.90039 105.09961 L 656.40039 106.90039 L 654.5 107.09961 L 654.19922 105.90039 L 652 106 L 651 107.19922 L 650.30078 107.09961 L 650.09961 106.30078 L 647.5 106.69922 L 647.40039 101.90039 L 648.40039 99.900391 L 647.69922 99.800781 L 645.90039 100.90039 L 643.69922 100.90039 L 639.90039 103.59961 L 633.69922 103.90039 L 629.59961 104.69922 L 627.69922 106.19922 L 626.30078 107.5 L 623.80078 109.19922 L 623.5 110 L 622.90039 108.30078 L 621.59961 107.69922 L 621.59961 108.30078 L 622.30078 109 L 622.30078 110.30078 L 620.80078 109.69922 L 620.19922 109.69922 L 619.90039 110.90039 L 617.90039 109 L 616.59961 108.80078 L 615.30078 110.30078 L 612.09961 110.19922 L 611.59961 108.80078 L 609.59961 106.90039 L 608.30078 105.30078 L 608.30078 104.59961 L 607.19922 103.19922 L 604.59961 102 L 601.30078 101.90039 L 600.19922 101 L 598.80078 101 L 598.09961 101.40039 L 595.90039 103.59961 L 595.19922 104.69922 L 594.19922 104 L 594.40039 103 L 595.19922 100.90039 L 598.40039 95.900391 L 599.19922 95.699219 L 600.90039 93.800781 L 601.59961 92.199219 L 604.59961 91.599609 L 605.40039 91 L 605.30078 90 L 604.80078 89.5 L 600.30078 89.699219 L 598.30078 90.199219 L 595.69922 91.400391 L 594.5 92.599609 L 592.80078 94.800781 L 591 95.800781 L 587.69922 99.199219 L 587.30078 100.80078 L 579.90039 105.40039 L 575.90039 105.90039 L 574.09961 106.30078 L 571.80078 109.30078 L 570 110 L 565.59961 112.30078 L 563.69922 111.59961 L 560.40039 109.69922 L 560.40039 111.09961 L 558.09961 112.19922 L 557.69922 111.30078 L 559.09961 109.69922 L 558.59961 108.19922 L 559.80078 106.80078 L 560.59961 105.19922 L 558.40039 103.59961 L 557.40039 104.59961 L 557.09961 104.09961 L 555.30078 105.80078 L 553.5 106.69922 L 553.09961 105.90039 L 552.40039 107.09961 L 551.19922 107.09961 L 550.90039 108.09961 L 544.09961 110.69922 L 541.5 110.69922 L 540.30078 108.5 L 544.59961 105.40039 L 547.69922 101.69922 L 549.30078 100.90039 L 554 95 L 560.30078 89.199219 L 564.19922 87.099609 L 570.5 84.400391 L 578.09961 79.900391 L 577.5 79.5 L 573.80078 80.199219 L 571 80.300781 L 570 78.699219 L 568.59961 77.800781 L 558.80078 79 L 557.80078 76.199219 L 556.19922 76.099609 L 554.5 76.900391 L 550.80078 80 L 546.69922 80 L 544.59961 79 L 544.30078 77.300781 L 540.40039 76.5 L 539.80078 74.900391 L 539.09961 73.599609 L 538.09961 74.5 L 535.5 74.599609 L 525.59961 69.099609 L 522.69922 69.099609 L 521.90039 68.400391 L 518.80078 69.699219 L 518 71 L 514.69922 71.800781 L 513.40039 71.599609 L 513.40039 69.900391 L 512.69922 69 L 506.80078 69 L 506.40039 67.599609 L 503.80078 67.599609 L 502.69922 68 L 500.30078 66.300781 L 500.59961 64.900391 L 500 62.5 L 499.30078 61.400391 L 499.09961 58.400391 L 498.09961 55.300781 L 496 53.699219 L 493.09961 53.699219 z M 593.09961 74.900391 L 590.80078 75.099609 L 588.09961 77 L 581 82.300781 L 581.80078 83.300781 L 583.59961 83.599609 L 586.40039 81.599609 L 585.30078 81.099609 L 587.59961 79.5 L 588.59961 79.5 L 591.59961 77.599609 L 591.5 76.699219 L 593.09961 74.900391 z M 564.59961 101 L 564.30078 102.90039 L 565.5 102.40039 L 565.59961 101 L 564.59961 101 z M 564 103.5 L 561.80078 104 L 561.59961 104.90039 L 563.30078 104.90039 L 563.90039 104.5 L 564 103.5 z M 563.09961 105.59961 L 562.09961 105.90039 L 561.90039 106.59961 L 562.80078 106.5 L 563.09961 105.59961 z M 561.5 106.69922 L 561 106.80078 L 559.5 108.40039 L 559.69922 108.90039 L 561.19922 108.30078 L 561.19922 107.69922 L 562.09961 107.40039 L 561.5 106.69922 z M 670.69922 112.59961 L 668.80078 112.69922 L 668.69922 113.19922 L 669.80078 113.59961 L 668.19922 114.40039 L 667.90039 115.40039 L 667.30078 114.80078 L 666.90039 115.59961 L 668.19922 116.80078 L 672 116.90039 L 672.59961 116.40039 L 672.40039 114.40039 L 670.69922 112.59961 z M 654.90039 119.19922 L 654.90039 120.09961 L 655.69922 119.90039 L 655.69922 119.40039 L 654.90039 119.19922 z M 656.40039 120.59961 L 656 120.90039 L 656.90039 121.30078 L 658 122.40039 L 659.59961 122.30078 L 659.5 121.19922 L 657.90039 121 L 657.30078 120.59961 L 656.40039 120.59961 z M 641.59961 123.5 L 641.5 124.59961 L 641.19922 125.30078 L 641.40039 127.5 L 641.80078 127.80078 L 642.5 127.90039 L 643 127 L 643.09961 125.40039 L 642.80078 124.80078 L 642.69922 123.69922 L 641.59961 123.5 z M 622.90039 132.90039 L 620.90039 133.19922 L 620.5 134.5 L 621.80078 136.19922 L 622.90039 132.90039 z M 634.19922 137.69922 L 634.19922 138.69922 L 636.30078 140.30078 L 636.09961 137.90039 L 634.19922 137.69922 z M 633.5 140.5 L 633.59961 141.5 L 634.59961 141.5 L 634.59961 140.59961 L 633.5 140.5 z "
       style="fill:#b5e6e5;fill-opacity:1">
      <title
         id="title14">Lincoln</title>
    </path>
    <!-- The scale of Puerto Rico is 1.4 times that of the contiguous United States, so its area is amplified by about 2. Mona Island is not shown. -->
    <!-- The scale of the U.S. Virgin Islands is 4 times that of the contiguous United States, so their area is amplified by 16. The distance between Saint Croix and the other islands is reduced. -->
    <!-- The scale of Guam is 3.3 times that of the contiguous United States, so its area is amplified by about 11. -->
    <!-- The scale of the Northern Mariana Islands is 4 times that of the contiguous United States, so their area is amplified by 16. Aguigan, Rota and the Northern Islands are not shown. -->
    <!-- The scale of American Samoa is 6 times that of the contiguous United States, so its area is amplified by 36. Manu'a, Swains Island and Rose Atoll are not shown. -->
  </g>
  <g
     class="borders"
     fill="none"
     id="g164">
    <path
       class="jk-ln"
       d="m 591.7,344.9 -11.2,.8 2.8,-5.1 1.7,-1.5 v -2.2 l -1.6,-2.5 -39.8,2 -39.1,.7"
       id="path63" />
    <path
       class="jk-ft"
       d="m 507.9,400.5 .7,-39 -4.1,-24.4"
       id="path65" />
    <path
       class="jk-ft"
       d="m 507.9,400.5 2.6,2.3 2.8,-1.3 3.2,.8 .2,11.9"
       id="path67" />
    <path
       class="pc-ft"
       d="m 253.8,311 -17.4,124.1"
       id="path69" />
    <path
       class="ft-pc"
       d="m 265.3,222.7 -11.5,88.3"
       id="path78" />
    <path
       class="ln-ft"
       d="m 484.5,246.8 -1.8,-4.4 .7,-2.2 -.8,-3.3 .2,-2.9 -1.3,-.7 -.4,-6.1 -2.8,-5 -.2,-3.7 -2.2,-4.3 -1.3,-3.7 v -1.4 l -.6,-1.7 v -2.3 l -.5,-.9"
       id="path95" />
    <path
       class="ln-ft"
       d="m 473.5,204.2 -.7,-1.7 -.3,-1.3 -1.3,-1.2 1,-4.3 1.7,-5.1 -.7,-2 -1.3,-.4 -.4,-1.6 1,-.5 .1,-1.1 -1.3,-1.5 .1,-1.6 2.2,.1"
       id="path96" />
    <path
       class="pc-ft"
       d="m 188.8,30.5 -4.8,22 3.7,7.4 -1.6,4.8 3.6,4.8 1.9,.7 3.9,8.3 v 2.1 l 2.3,3 h .9 l 1.4,2.1 h 3.2 v 1.6 l -7.1,17 -.5,4.1 1.4,.5 1.6,2.6 2.8,-1.4 3.6,-2.4 1.9,1.9 .5,2.5 -.5,3.2 2.5,9.7 2.6,3.5 2.3,1.4 .4,3 v 4.1 l 2.3,2.3 1.6,-2.3 6.9,1.6 2.1,-1.2 9,1.7 2.8,-3.3 1.8,-.6 1.2,1.8 1.6,4.1 .9,.1"
       id="path98" />
    <path
       class="pc-ft"
       d="m 245,141.2 -8.5,54.8"
       id="path103" />
    <path
       class="ft-ln"
       d="m 504.3,326.3 -.5,-48.1 -3.2,-.7 -2.6,-4.7 -2.5,-2.5 .5,-2.3 2.7,-2.6 .1,-1.2 -1.5,-2.1 -.9,1 -2,-.6 -2.9,-3"
       id="path111" />
    <path
       class="ln-jk"
       d="m 596.7,333.5 23.3,-1.5 .6,-.9 -1.2,-3.2 h 3.7 l .7,.6 22.6,-2 2.6,-.8 17.4,-1 5.2,-.8 20.5,-1.4 5.6,-1.4 m -103.6,12.7 h 1"
       id="path116" />
    <path
       class="ln-ol"
       d="m 697.7,321.1 6.9,-4.2 1,-.4 .5,-1.9 1.8,-.5 1.4,-1.4 .1,-1.7 2.1,-1.3 .4,-2.2 3,-3 2.9,-1 4.9,-6.6"
       id="path117" />
    <path
       class="jk-ft"
       d="m 516.7,414.2 .5,19.9 .7,3.4 2.6,2.8 .7,5.4 3.8,4.6 .8,4.3 h 1 l -.1,7.3 -3.3,6.4 1.3,2.3 -1.3,1.5 .7,3 -.1,4.3 -2.2,3.5 -.1,.8 -1.7,1.2 1,1.8 1.2,1.1"
       id="path120" />
    <path
       class="ol-ln"
       d="m 757.4,241.9 1.7,11.4 1.8,-1.6 .9,-1.6 3.1,-3.9 2.2,.3 2.6,-3.8 1.9,1 3.3,-.4 1.7,-2.9 h 1.3 l .9,-1.4 1.4,-.3 2.2,1.6 2.6,-.4 -.2,1 .8,1.2 h .7 l .2,.7 1,.5 -.2,1.6 .9,.4"
       id="path127" />
    <path
       class="ln-ft"
       d="m 462.3,61.3 2.4,7.3 -1.1,2.8 .8,1.4 -.3,5.1 -.5,1.1 2.7,9.1 1.3,2.5 .7,14 1,2.7 -.4,5.8 2.9,7.4 .3,5.8 -.1,2.1"
       id="path131" />
    <path
       class="ln-ft"
       d="m 473.6,182 .2,-39.5 -1.5,-1.9 -2.6,-.6 -.4,-1.8 -1.7,-2.5 .3,-1.2 3.1,-1.9 .9,-2 .1,-2.2"
       id="path132" />
    <path
       class="ln-ft"
       d="m 491.5,259.5 -3.9,-6.3 -2.1,-3.7 .3,-1.4 -1.3,-1.3"
       id="path134" />
    <path
       class="ln-ft"
       d="m 504.3,326.3 .2,10.8"
       id="path135" />
    <path
       class="ln-jk"
       d="m 591.7,344.9 1,-2 1.2,-.5 v -.7 l -1.2,-1.1 -.6,-1 1.7,.2 .8,-.7 -1.4,-1.5 1.4,-.5 .1,-1 -.6,-1 0,-1.3 m 1,0 .8,.7 .8,-1"
       id="path136" />
    <path
       class="jk-ol"
       d="m 731.1,317 29.4,-3.5 39.4,-7.3 29.1,-6.1"
       id="path143" />
    <path
       class="ln-ol"
       d="m 736.8,225.1 -4.9,-29.9"
       id="path156" />
    <path
       class="ol-ln"
       d="m 736.8,225.1 3.2,19.7 17.4,-2.9"
       id="path160" />
    <path
       class="jk-ol"
       d="m 697.7,321.1 28.9,-3.3 .2,-1 4.6,-.5 -.3,.7"
       id="path162" />
    <path
       class="pc-ft"
       d="m 236.5,196 -3.3,21.9 32.1,4.8"
       id="path163" />
    <path
       class="ol-ln"
       d="m 722.7,296.9 .7,.6 -.8,1.2 1.5,.7 .1,1.5 4.4,2.3 2.3,-.1 1.9,-1.8 .8,-1.7 3,1.8 5.5,-2.4 .5,-.9 -.8,-.5 .6,-1.4 1.5,1 4.3,-3.1 .7,1.1 2.3,-2 -.1,-1.4 1.5,-1.9 -1.5,-1.2 1,-3.3 3.7,-6.3 -.4,-1.9 2.1,-2.2 -.4,-1.5 1.4,-1.7 .1,-4.7 2.3,.7 1.3,1.9 2.8,.5 1.3,-1.6 2.3,-8.5 2.4,1.1 1,-2.5 .9,-.8 1.4,-1.8 .9,-.8 .5,-2.1 1.2,-.8 -.1,-2.9 .8,-2.3 -.9,-1.6 .2,-.9 10,5.2 .5,-2.3 .4,-1.6 .4,-.7"
       id="path164" />
  </g>
  <path
     class="separator1"
     fill="none"
     d="m 215,493 v 55 l 36,45 M 0,425 h 147 l 68,68 h 85 l 54,54 v 46"
     id="path166"
     sodipodi:nodetypes="ccccccccc" />
</svg>
